<svg width="482" height="467" viewBox="0 0 482 467" fill="none" xmlns="http://www.w3.org/2000/svg">
<path d="M183.937 71.623C201.898 16.3443 280.102 16.3444 298.063 71.623L306.558 97.7671C314.591 122.488 337.628 139.226 363.621 139.226H391.111C449.234 139.226 473.401 213.603 426.378 247.767L404.139 263.925C383.109 279.204 374.31 306.286 382.342 331.007L390.837 357.151C408.798 412.43 345.529 458.397 298.507 424.233L276.267 408.075C255.238 392.796 226.762 392.796 205.733 408.075L183.493 424.233C136.471 458.397 73.2019 412.43 91.163 357.151L99.6577 331.007C107.69 306.286 98.8906 279.204 77.8614 263.925L55.6219 247.767C8.5991 213.603 32.7657 139.226 90.8891 139.226H118.379C144.372 139.226 167.409 122.488 175.442 97.767L183.937 71.623Z" stroke="#44A411" stroke-width="60"/>
</svg>
