<svg width="2659" height="1024" viewBox="0 0 2659 1024" fill="none" xmlns="http://www.w3.org/2000/svg">
<g clip-path="url(#clip0_1282_8301)">
<rect width="2659" height="1024" fill="#4787C6"/>
<rect y="708" width="2707" height="316" fill="#44A411"/>
<path d="M341.137 122.06C341.137 122.06 464.032 -37.7226 269.847 -76.5958C-246.026 -94.7716 2.9924 365.201 2.9924 365.201C115.582 524.829 175.409 379.37 175.409 379.37L208.896 379.37L208.896 340.992C208.896 340.992 407.164 354.679 329.285 171.029L358.974 154.728L341.137 122.06Z" fill="#44A411" stroke="#006428" stroke-width="5"/>
<path d="M833.982 171.565C833.982 171.565 1019.53 250.342 1008.33 52.6212C896.228 -451.252 513.636 -94.5886 513.636 -94.5886C387.442 54.5168 543.27 75.8527 543.27 75.8527L551.689 108.264L588.834 98.6154C588.834 98.6154 625.434 293.955 783.606 172.406L806.847 197.043L833.982 171.565Z" fill="#44A411" stroke="#006428" stroke-width="5"/>
<path d="M1291.98 204.565C1291.98 204.565 1477.53 283.342 1466.33 85.6212C1354.23 -418.252 971.636 -61.5886 971.636 -61.5886C845.442 87.5168 1001.27 108.853 1001.27 108.853L1009.69 141.264L1046.83 131.615C1046.83 131.615 1083.43 326.955 1241.61 205.406L1264.85 230.043L1291.98 204.565Z" fill="#44A411" stroke="#006428" stroke-width="5"/>
<path d="M210 708L15 1024H600L405 708H210Z" fill="#783A00" fill-opacity="0.3" stroke="#783A00" stroke-opacity="0.3"/>
<path d="M125.09 129.564C263.8 160.527 244.445 -44.0909 125.09 -1.01473L-93.6179 -1.01519C-214.907 -40.0535 -242.004 153.795 -93.6183 129.564L-93.618 832.939L-93.6179 927.171C-93.6179 927.171 -43.5084 932.387 12.5444 935.892C24.7505 936.656 37.2385 937.338 49.5523 937.867C62.7777 938.435 75.8021 938.828 88.0605 938.955C130.363 939.395 163.543 936.681 164.377 927.171C167.882 887.206 125.09 832.939 125.09 832.939V129.564Z" fill="#FFD881"/>
<path d="M125.09 129.564C263.8 160.527 244.445 -44.0909 125.09 -1.01473L-93.6179 -1.01519C-214.907 -40.0535 -242.004 153.795 -93.6183 129.564M125.09 129.564V832.939M125.09 129.564L119.016 116.164H88.0605M125.09 832.939C125.09 832.939 167.881 887.206 164.377 927.171C163.543 936.681 130.363 939.395 88.0605 938.955C75.8021 938.828 62.7777 938.435 49.5523 937.867C37.2385 937.338 24.7505 936.656 12.5444 935.892C-43.5084 932.387 -93.6179 927.171 -93.6179 927.171L-93.618 832.939M125.09 832.939H88.0605M-93.6183 129.564L-93.3488 116.164H12.5444M-93.6183 129.564L-93.618 832.939M119.016 76.0698C116.267 61.2705 118.766 39.7015 130.189 28.387C140.014 18.6556 150.427 17.8323 164.377 17.8319C174.196 17.8319 181.196 18.7198 187.369 28.387C189.734 32.0905 193.941 36.9428 194.954 41.149C196.182 46.247 196.049 48.5937 197.176 53.7957C198.892 61.7108 205.179 71.5232 199.61 85.2984C193.463 100.506 183.208 104.188 175.218 104.188C147.637 106.816 149.608 105.063 142.518 97.4299C135.427 89.7963 136.612 92.316 135.427 85.2984C133.118 71.6232 133.089 54.4906 143.1 43.7125C150.086 36.1913 170.333 38.3621 175.218 47.3014C179.592 55.3069 187.839 67.3233 179.715 76.0698C176.138 79.921 174.958 80.6271 169.662 80.6271C165.185 80.6271 162.042 79.8658 162.042 74.4747M-93.3488 76.0698C-90.5996 61.2705 -93.0983 39.7015 -104.521 28.387C-114.346 18.6556 -124.76 17.8323 -138.709 17.8319C-148.528 17.8319 -155.528 18.7198 -161.701 28.387C-164.066 32.0905 -168.274 36.9428 -169.287 41.149C-170.514 46.247 -170.381 48.5937 -171.509 53.7957C-173.224 61.7108 -179.511 71.5232 -173.943 85.2984C-167.795 100.506 -157.541 104.188 -149.55 104.188C-121.97 106.816 -123.94 105.063 -116.85 97.4299C-109.76 89.7963 -110.945 92.316 -109.76 85.2984C-107.45 71.6232 -107.421 54.4906 -117.432 43.7125C-124.418 36.1913 -144.666 38.3621 -149.55 47.3014C-153.924 55.3069 -162.172 67.3233 -154.048 76.0698C-150.471 79.921 -149.29 80.6271 -143.994 80.6271C-139.518 80.6271 -136.375 79.8658 -136.375 74.4747M88.0605 116.164H49.5523M88.0605 116.164V832.939M49.5523 116.164H12.5444M49.5523 116.164V832.939M12.5444 116.164V832.939M-93.618 832.939H12.5444M88.0605 832.939H49.5523M49.5523 832.939H12.5444" stroke="#B69959" stroke-width="5" stroke-linecap="round"/>
<path d="M489.91 129.564C351.2 160.527 370.555 -44.0909 489.91 -1.01473L708.618 -1.01519C829.907 -40.0535 857.004 153.795 708.618 129.564L708.618 832.939L708.618 927.171C708.618 927.171 658.508 932.387 602.456 935.892C590.249 936.656 577.761 937.338 565.448 937.867C552.222 938.435 539.198 938.828 526.94 938.955C484.637 939.395 451.457 936.681 450.623 927.171C447.118 887.206 489.91 832.939 489.91 832.939V129.564Z" fill="#FFD881"/>
<path d="M489.91 129.564C351.2 160.527 370.555 -44.0909 489.91 -1.01473L708.618 -1.01519C829.907 -40.0535 857.004 153.795 708.618 129.564M489.91 129.564V832.939M489.91 129.564L495.984 116.164H526.94M489.91 832.939C489.91 832.939 447.119 887.206 450.623 927.171C451.457 936.681 484.637 939.395 526.94 938.955C539.198 938.828 552.222 938.435 565.448 937.867C577.761 937.338 590.249 936.656 602.456 935.892C658.508 932.387 708.618 927.171 708.618 927.171L708.618 832.939M489.91 832.939H526.94M708.618 129.564L708.349 116.164H602.456M708.618 129.564L708.618 832.939M495.984 76.0698C498.733 61.2705 496.234 39.7015 484.811 28.387C474.986 18.6556 464.573 17.8323 450.623 17.8319C440.804 17.8319 433.804 18.7198 427.631 28.387C425.266 32.0905 421.059 36.9428 420.046 41.149C418.818 46.247 418.951 48.5937 417.824 53.7957C416.108 61.7108 409.821 71.5232 415.39 85.2984C421.537 100.506 431.792 104.188 439.782 104.188C467.363 106.816 465.392 105.063 472.482 97.4299C479.573 89.7963 478.388 92.316 479.573 85.2984C481.882 71.6232 481.911 54.4906 471.9 43.7125C464.914 36.1913 444.667 38.3621 439.782 47.3014C435.408 55.3069 427.161 67.3233 435.285 76.0698C438.862 79.921 440.042 80.6271 445.338 80.6271C449.815 80.6271 452.958 79.8658 452.958 74.4747M708.349 76.0698C705.6 61.2705 708.098 39.7015 719.521 28.387C729.346 18.6556 739.76 17.8323 753.709 17.8319C763.528 17.8319 770.528 18.7198 776.701 28.387C779.066 32.0905 783.274 36.9428 784.287 41.149C785.514 46.247 785.381 48.5937 786.509 53.7957C788.224 61.7108 794.511 71.5232 788.943 85.2984C782.795 100.506 772.541 104.188 764.55 104.188C736.97 106.816 738.94 105.063 731.85 97.4299C724.76 89.7963 725.945 92.316 724.76 85.2984C722.45 71.6232 722.421 54.4906 732.432 43.7125C739.418 36.1913 759.666 38.3621 764.55 47.3014C768.924 55.3069 777.172 67.3233 769.048 76.0698C765.471 79.921 764.29 80.6271 758.994 80.6271C754.518 80.6271 751.375 79.8658 751.375 74.4747M526.94 116.164H565.448M526.94 116.164V832.939M565.448 116.164H602.456M565.448 116.164V832.939M602.456 116.164V832.939M708.618 832.939H602.456M526.94 832.939H565.448M565.448 832.939H602.456" stroke="#B69959" stroke-width="5" stroke-linecap="round"/>
<rect x="683" width="1976" height="114" fill="#FFD781"/>
<path d="M16.8513 783.363C16.8513 783.363 -43.2222 672.276 -115.009 773.471C-257.025 1064.02 69.7061 1038.88 69.7061 1038.88C189.771 1015.19 121.803 943.841 121.803 943.841L130.347 924.68L108.387 914.888C108.387 914.888 166.803 804.931 41.8479 802.638L40.0954 781.491L16.8513 783.363Z" fill="#386322" stroke="#003F19" stroke-width="5"/>
<path d="M590.782 811.363C590.782 811.363 650.855 700.276 722.641 801.471C864.658 1092.02 537.927 1066.88 537.927 1066.88C417.861 1043.19 485.83 971.841 485.83 971.841L477.286 952.68L499.246 942.888C499.246 942.888 440.83 832.931 565.785 830.638L567.537 809.491L590.782 811.363Z" fill="#386322" stroke="#003F19" stroke-width="5"/>
<path d="M423.872 264.628C419.277 263.629 415.482 263.747 412.362 264.628C401.871 267.59 399.017 279.182 399.087 285.97C399.178 294.776 399.087 300.132 399.087 311.571C412.432 323.282 421.058 314.106 423.872 309.022C432.225 296.039 443.918 268.985 423.872 264.628Z" fill="#E9C7A9"/>
<path d="M199.352 264.628C203.947 263.629 207.748 263.747 210.876 264.628C221.393 267.59 224.305 279.182 224.235 285.97C224.144 294.774 224.235 300.13 224.235 311.563C224.235 311.566 224.235 311.568 224.235 311.571C210.889 323.282 202.166 314.106 199.352 309.022C191 296.039 179.307 268.985 199.352 264.628Z" fill="#E9C7A9"/>
<path d="M224.235 285.97V311.563V311.571C224.235 355.208 255.811 391.425 297.226 398.349C301.922 399.134 306.744 399.542 311.661 399.542C316.578 399.542 321.4 399.134 326.096 398.349C367.511 391.425 399.087 355.208 399.087 311.571V285.97C399.017 279.182 401.871 267.59 412.362 264.628C412.362 147.886 213.885 147.886 210.876 264.628C221.393 267.59 224.305 279.182 224.235 285.97Z" fill="#E9C7A9"/>
<path d="M311.661 399.542C306.744 399.542 301.922 399.134 297.226 398.349V420.241L210.876 438.216L130 548.792L210.876 625.869C210.876 652.287 218.788 659.369 242.755 659.369L234.785 604.081L175.756 548.792L218.846 493.504L226.815 548.792L234.785 604.081L242.755 659.369H381.656L389.332 604.081L397.009 548.792L404.685 493.504L443.208 548.792L389.332 604.081L381.656 659.369C404.685 659.369 412.362 652.287 412.362 625.869L485.423 548.792L412.362 438.216L326.096 420.241V398.349C321.4 399.134 316.578 399.542 311.661 399.542Z" fill="#E9C7A9"/>
<path d="M381.656 659.369H242.755V934.72C242.755 934.72 199.64 953.292 199.352 976.935C198.946 1010.31 284.827 976.935 284.827 976.935V702.401H338.997L349.246 976.935C349.246 976.935 420.224 1005.85 423.872 976.935C426.539 955.801 381.656 934.72 381.656 934.72V659.369Z" fill="#E9C7A9"/>
<path d="M399.087 311.571V285.97M399.087 311.571C412.432 323.282 421.058 314.106 423.872 309.022C432.225 296.039 443.918 268.985 423.872 264.628C419.277 263.629 415.482 263.747 412.362 264.628M399.087 311.571C399.087 300.132 399.178 294.776 399.087 285.97M399.087 311.571C399.087 355.208 367.511 391.425 326.096 398.349M224.235 311.571C210.889 323.282 202.166 314.106 199.352 309.022C191 296.039 179.307 268.985 199.352 264.628C203.947 263.629 207.748 263.747 210.876 264.628M224.235 311.571C224.235 355.208 255.811 391.425 297.226 398.349M224.235 311.571V311.563M224.235 311.571C224.235 311.568 224.235 311.566 224.235 311.563M224.235 285.97C224.305 279.182 221.393 267.59 210.876 264.628M224.235 285.97V311.563M224.235 285.97C224.144 294.774 224.235 300.13 224.235 311.563M399.087 285.97C399.017 279.182 401.871 267.59 412.362 264.628M210.876 264.628C213.885 147.886 412.362 147.886 412.362 264.628M297.226 398.349C301.922 399.134 306.744 399.542 311.661 399.542C316.578 399.542 321.4 399.134 326.096 398.349M297.226 398.349V420.241L210.876 438.216L130 548.792L210.876 625.869C210.876 652.287 218.788 659.369 242.755 659.369M242.755 659.369H381.656M242.755 659.369L234.785 604.081M242.755 659.369V934.72C242.755 934.72 199.64 953.292 199.352 976.935C198.946 1010.31 284.827 976.935 284.827 976.935V702.401H338.997L349.246 976.935C349.246 976.935 420.224 1005.85 423.872 976.935C426.539 955.801 381.656 934.72 381.656 934.72V659.369M326.096 398.349V420.241L412.362 438.216L485.423 548.792L412.362 625.869C412.362 652.287 404.685 659.369 381.656 659.369M381.656 659.369L389.332 604.081M234.785 604.081L226.815 548.792L218.846 493.504L175.756 548.792L234.785 604.081ZM389.332 604.081L443.208 548.792L404.685 493.504L397.009 548.792L389.332 604.081ZM245.206 521.829L264.271 530.272M311.661 480.704V512.025M338.997 442.029H397.009M226.815 442.029H284.827" stroke="#BE722C" stroke-width="5" stroke-linecap="round" stroke-linejoin="round"/>
<path d="M202.395 199.261C163.458 217.766 181.59 249.253 195.638 263.092C208.412 259.31 215.973 266.729 221.239 262.517L214.086 247.023L223.691 251.675V240.487L233.768 244.535L234.312 232.044L245.479 237.017V226.869L257.19 230.426L259.097 219.515L269.446 224.623L272.715 212.434L283.39 219.515L289.873 206.17L300.222 215.664L308.121 203.991L316.291 214.527L325.279 203.991L330.332 215.664L343.527 206.17L346.613 219.515L359.822 212.434V224.623L371.239 219.515V230.426L381.992 226.869V237.017L392.603 232.044V244.535L403.99 240.487L401.628 251.675L410.799 247.296L401.628 262.517C406.27 266.732 418.969 260.066 426.323 262.517C461.126 233.099 440.128 208.553 425.626 199.261L429.161 183.248L415.566 184.137C409.91 142.857 378.587 150.726 363.632 159.82L358.194 148.848L344.871 154.186C315.506 112.194 285.868 136.689 274.721 154.186L263.301 145.289L255.144 159.82C222.298 143.451 214.086 169.211 214.086 184.137L199.947 183.248L202.395 199.261Z" fill="#783A00" stroke="#462507" stroke-width="5"/>
<path d="M250.381 339.894C249.292 317.452 232.497 312.568 224.235 312.931C224.235 372.032 276.8 399.812 310.844 399.812C355.238 399.812 399.36 363.589 399.36 312.931C388.193 312.023 367.658 320.938 365.043 339.894C349.355 335.101 341.711 341.165 339.986 347.793C333.177 339.894 319.287 337.988 310.844 351.333C300.386 337.607 284.426 342.073 279.251 347.793C277.163 341.438 268.466 330.961 250.381 339.894Z" fill="#783A00" stroke="#462507" stroke-width="5"/>
<path d="M296.137 333.988V330.549C296.137 328.34 297.928 326.549 300.137 326.549H322.64C324.85 326.549 326.64 328.34 326.64 330.549V333.988C326.64 336.197 324.85 337.988 322.64 337.988H300.137C297.928 337.988 296.137 336.197 296.137 333.988Z" fill="#FF937E" stroke="#99584C" stroke-width="5"/>
<path d="M260.671 318.142C285.696 321.159 291.438 303.535 292.205 291.448C292.332 289.443 290.806 287.758 288.811 287.518L264.917 284.638L260.671 318.142Z" fill="black"/>
<path d="M241.507 281.817C239.314 281.552 237.303 283.108 237.095 285.307C235.998 296.899 236.501 315.23 260.671 318.142L264.917 284.638L241.507 281.817Z" fill="black"/>
<path d="M241.507 281.817C239.314 281.552 237.303 283.108 237.095 285.307C235.998 296.899 236.501 315.23 260.671 318.142L264.917 284.638L241.507 281.817Z" fill="white"/>
<path d="M260.671 318.142C285.696 321.159 291.438 303.535 292.205 291.448C292.332 289.443 290.806 287.758 288.811 287.518L264.917 284.638M260.671 318.142C236.501 315.23 235.998 296.899 237.095 285.307C237.303 283.108 239.314 281.552 241.507 281.817L264.917 284.638M260.671 318.142C262.329 305.058 263.259 297.722 264.917 284.638M260.671 318.142L264.917 284.638" stroke="black" stroke-width="5"/>
<path d="M383.278 281.817C385.471 281.552 387.482 283.108 387.69 285.307C388.787 296.899 388.284 315.23 364.115 318.142L359.868 284.638L383.278 281.817Z" fill="black"/>
<path d="M364.115 318.142C339.089 321.159 333.347 303.535 332.581 291.448C332.453 289.443 333.979 287.758 335.974 287.518L359.868 284.638L364.115 318.142Z" fill="black"/>
<path d="M364.115 318.142C339.089 321.159 333.347 303.535 332.581 291.448C332.453 289.443 333.979 287.758 335.974 287.518L359.868 284.638L364.115 318.142Z" fill="white"/>
<path d="M364.115 318.142C339.089 321.159 333.347 303.535 332.581 291.448C332.453 289.443 333.979 287.758 335.974 287.518L359.868 284.638M364.115 318.142C388.284 315.23 388.787 296.899 387.69 285.307C387.482 283.108 385.471 281.552 383.278 281.817L359.868 284.638M364.115 318.142C362.456 305.058 361.526 297.722 359.868 284.638M364.115 318.142L359.868 284.638" stroke="black" stroke-width="5"/>
<path d="M297.771 365.225C297.771 379.024 325.552 379.024 325.552 365.225" stroke="black" stroke-width="5"/>
<path d="M333.159 265.264L358.74 271.491C366.119 273.287 369.113 260.988 361.733 259.192L336.152 252.966C327.461 250.85 324.468 263.149 333.159 265.264Z" fill="#783A00" stroke="#462507" stroke-width="5"/>
<path d="M292.66 265.264L267.079 271.491C259.7 273.287 256.707 260.988 264.086 259.192L289.667 252.966C298.358 250.85 301.351 263.149 292.66 265.264Z" fill="#783A00" stroke="#462507" stroke-width="5"/>
<path fill-rule="evenodd" clip-rule="evenodd" d="M241.68 652.287L242.755 659.641H381.112L384.847 703.71C384.995 705.46 387.047 706.325 388.403 705.208L388.824 704.861C389.442 704.352 389.731 703.545 389.577 702.76L381.112 659.641C381.112 659.641 387.632 662.242 389.827 659.641C391.679 657.446 391.814 654.361 389.827 652.287C387.754 650.123 382.152 652.287 382.152 652.287H241.68Z" fill="#BC8C20"/>
<path d="M381.112 659.641H242.755V843.481C282.247 843.481 366.732 823.272 381.112 659.641Z" fill="#FE4725"/>
<path d="M381.112 659.641C366.732 823.272 282.247 843.481 242.755 843.481H378.933C380.136 843.481 381.112 842.505 381.112 841.302V659.641Z" fill="#9D2C17"/>
<path fill-rule="evenodd" clip-rule="evenodd" d="M382.152 652.287H241.68C241.68 652.287 321.738 616.609 330.726 579.841C331.978 574.719 326.791 568.256 321.738 569.764C287.966 579.841 241.68 652.287 241.68 652.287L229.502 568.99C229.31 567.676 230.332 566.499 231.659 566.474L231.662 566.474C236.106 566.396 240.529 566.115 244.919 565.643C321.987 557.369 389.276 490.469 391.409 437C391.463 435.642 392.693 434.627 394.03 434.87L410.372 437.842C411.523 438.051 412.303 439.132 412.139 440.29L382.152 652.287Z" fill="#E1D1AC"/>
<path d="M321.738 569.764C287.966 579.841 241.68 652.287 241.68 652.287C241.68 652.287 321.738 616.609 330.726 579.841C331.978 574.719 326.791 568.256 321.738 569.764Z" fill="#DAC697"/>
<path d="M381.112 659.641H242.755M381.112 659.641C366.732 823.272 282.247 843.481 242.755 843.481M381.112 659.641L382.152 652.287M381.112 659.641C381.112 659.641 387.632 662.242 389.827 659.641C391.679 657.446 391.814 654.361 389.827 652.287C387.754 650.123 382.152 652.287 382.152 652.287M381.112 659.641L389.577 702.76M381.112 659.641L384.847 703.71M381.112 659.641V841.302M242.755 659.641V843.481M242.755 659.641L241.68 652.287M242.755 843.481H378.933M241.68 652.287H382.152M241.68 652.287L229.502 568.99M241.68 652.287C241.68 652.287 287.966 579.841 321.738 569.764C326.791 568.256 331.978 574.719 330.726 579.841C321.738 616.609 241.68 652.287 241.68 652.287ZM241.68 652.287C270.199 649.382 332.727 637.853 354.693 614.975M382.152 652.287L412.139 440.29M231.662 566.474C231.661 566.474 231.66 566.474 231.659 566.474M231.662 566.474C236.106 566.396 240.529 566.115 244.919 565.643M231.662 566.474L231.659 566.474M391.409 437C391.463 435.642 392.693 434.627 394.03 434.87M391.409 437C389.276 490.469 321.987 557.369 244.919 565.643M391.409 437V437C391.463 435.649 392.699 434.628 394.03 434.87V434.87M394.03 434.87L410.372 437.842M410.372 437.842C411.523 438.051 412.303 439.132 412.139 440.29M410.372 437.842V437.842C411.523 438.051 412.303 439.132 412.139 440.29V440.29M389.577 702.76C389.731 703.545 389.442 704.352 388.824 704.861M389.577 702.76V702.76C389.731 703.545 389.442 704.352 388.824 704.861V704.861M388.824 704.861L388.403 705.208M388.403 705.208C387.047 706.325 384.995 705.46 384.847 703.71M388.403 705.208V705.208C387.047 706.325 384.995 705.46 384.847 703.71V703.71M381.112 841.302C381.112 842.505 380.136 843.481 378.933 843.481M381.112 841.302V841.302C381.112 842.505 380.136 843.481 378.933 843.481V843.481M229.502 568.99V568.99C229.31 567.675 230.33 566.497 231.659 566.474V566.474M229.502 568.99C229.31 567.676 230.332 566.499 231.659 566.474M231.659 566.474C236.104 566.396 240.528 566.115 244.919 565.643" stroke="#D7A026" stroke-width="5" stroke-linecap="round" stroke-linejoin="round"/>
<path d="M201.902 260.097C203.99 245.117 213.232 212.162 233.496 200.179" stroke="#084621" stroke-width="5"/>
<path d="M423.055 260.097C420.967 245.117 411.725 212.162 391.461 200.179" stroke="#084621" stroke-width="5"/>
<path d="M415.527 232.146C417.865 218.61 427.549 218.999 429.507 224.994C430.797 228.943 429.96 235.709 415.527 232.146Z" fill="#11A44C"/>
<path d="M407.233 215.513C405.347 201.997 414.776 199.586 418.49 204.713C420.936 208.091 422.197 214.751 407.233 215.513Z" fill="#11A44C"/>
<path d="M393.986 202.389C389.002 189.694 397.675 185.3 402.501 189.461C405.68 192.202 408.46 198.385 393.986 202.389Z" fill="#11A44C"/>
<path d="M394.599 202.506C381.89 196.89 376.837 204.997 380.802 209.924C383.414 213.17 389.582 216.246 394.599 202.506Z" fill="#11A44C"/>
<path d="M406.515 215.081C393.004 211.513 389.327 220.268 394.063 224.505C397.183 227.296 403.798 229.373 406.515 215.081Z" fill="#11A44C"/>
<path d="M415.527 232.146C417.865 218.61 427.549 218.999 429.507 224.994C430.797 228.943 429.96 235.709 415.527 232.146Z" stroke="#084621" stroke-width="5" stroke-linecap="round" stroke-linejoin="round"/>
<path d="M407.233 215.513C405.347 201.997 414.776 199.586 418.49 204.713C420.936 208.091 422.197 214.751 407.233 215.513Z" stroke="#084621" stroke-width="5" stroke-linecap="round" stroke-linejoin="round"/>
<path d="M393.986 202.389C389.002 189.694 397.675 185.3 402.501 189.461C405.68 192.202 408.46 198.385 393.986 202.389Z" stroke="#084621" stroke-width="5" stroke-linecap="round" stroke-linejoin="round"/>
<path d="M394.599 202.506C381.89 196.89 376.837 204.997 380.802 209.924C383.414 213.17 389.582 216.246 394.599 202.506Z" stroke="#084621" stroke-width="5" stroke-linecap="round" stroke-linejoin="round"/>
<path d="M406.515 215.081C393.004 211.513 389.327 220.268 394.063 224.505C397.183 227.296 403.798 229.373 406.515 215.081Z" stroke="#084621" stroke-width="5" stroke-linecap="round" stroke-linejoin="round"/>
<path d="M209.577 232.146C207.238 218.61 197.554 218.999 195.596 224.994C194.306 228.943 195.144 235.709 209.577 232.146Z" fill="#11A44C"/>
<path d="M217.871 215.513C219.756 201.997 210.327 199.586 206.614 204.713C204.167 208.091 202.907 214.751 217.871 215.513Z" fill="#11A44C"/>
<path d="M231.117 202.389C236.101 189.694 227.429 185.3 222.603 189.461C219.424 192.202 216.643 198.385 231.117 202.389Z" fill="#11A44C"/>
<path d="M230.505 202.506C243.214 196.89 248.267 204.997 244.302 209.924C241.689 213.17 235.521 216.246 230.505 202.506Z" fill="#11A44C"/>
<path d="M218.588 215.081C232.099 211.513 235.776 220.268 231.04 224.505C227.921 227.296 221.306 229.373 218.588 215.081Z" fill="#11A44C"/>
<path d="M209.577 232.146C207.238 218.61 197.554 218.999 195.596 224.994C194.306 228.943 195.144 235.709 209.577 232.146Z" stroke="#084621" stroke-width="5" stroke-linecap="round" stroke-linejoin="round"/>
<path d="M217.871 215.513C219.756 201.997 210.327 199.586 206.614 204.713C204.167 208.091 202.907 214.751 217.871 215.513Z" stroke="#084621" stroke-width="5" stroke-linecap="round" stroke-linejoin="round"/>
<path d="M231.117 202.389C236.101 189.694 227.429 185.3 222.603 189.461C219.424 192.202 216.643 198.385 231.117 202.389Z" stroke="#084621" stroke-width="5" stroke-linecap="round" stroke-linejoin="round"/>
<path d="M230.505 202.506C243.214 196.89 248.267 204.997 244.302 209.924C241.689 213.17 235.521 216.246 230.505 202.506Z" stroke="#084621" stroke-width="5" stroke-linecap="round" stroke-linejoin="round"/>
<path d="M218.588 215.081C232.099 211.513 235.776 220.268 231.04 224.505C227.921 227.296 221.306 229.373 218.588 215.081Z" stroke="#084621" stroke-width="5" stroke-linecap="round" stroke-linejoin="round"/>
</g>
<defs>
<clipPath id="clip0_1282_8301">
<rect width="2659" height="1024" fill="white"/>
</clipPath>
</defs>
</svg>
