<svg width="697" height="1024" viewBox="0 0 697 1024" fill="none" xmlns="http://www.w3.org/2000/svg">
<g clip-path="url(#clip0_1459_8489)">
<rect width="697" height="1024" fill="#4787C6"/>
<path d="M193.815 502.814C175.839 520.091 161.661 536.797 142 535.357V554H630.721V535.357C580.164 529.792 613.869 479.66 656 468.864C619.486 462.385 569.223 472.581 552.371 502.814C534.395 520.091 526.798 535.09 507.137 533.651C459.388 528.085 490.284 479.66 532.415 468.864C495.902 462.385 449.014 472.581 432.161 502.814C414.185 520.091 403.213 534.564 388.969 533.628C338.701 527.957 372.373 479.646 414.448 468.864C377.934 462.385 328.804 472.581 311.952 502.814C293.976 520.091 286.016 535.09 266.355 533.651C218.606 528.085 248.732 479.66 290.863 468.864C254.35 462.385 210.667 472.581 193.815 502.814Z" fill="#4787C6"/>
<path d="M389.169 533.651C338.612 528.085 372.317 479.66 414.448 468.864C377.934 462.385 328.804 472.581 311.952 502.814C293.976 520.091 286.016 535.09 266.355 533.651C218.606 528.085 248.732 479.66 290.863 468.864C254.35 462.385 210.667 472.581 193.815 502.814C175.839 520.091 161.661 536.797 142 535.357V554H630.721V535.357C580.164 529.792 613.869 479.66 656 468.864C619.486 462.385 569.223 472.581 552.371 502.814C534.395 520.091 526.798 535.09 507.137 533.651C459.388 528.085 490.284 479.66 532.415 468.864C495.902 462.385 449.014 472.581 432.161 502.814C414.185 520.091 403.213 534.564 388.969 533.628" stroke="#134D86" stroke-width="4"/>
<rect x="139" y="537" width="515" height="45" fill="#4787C6"/>
<path fill-rule="evenodd" clip-rule="evenodd" d="M342.187 227.008C279.666 231.025 255.109 252.4 249.943 256.977C247.142 259.459 226.816 283.456 238.662 322.759C250.507 362.062 230.906 382.99 219.624 388.541C207.168 396.868 187.895 421.682 210.458 454.324C239.226 496.291 222.445 521.216 210.458 528.433C201.057 538.425 187.895 564.405 210.458 588.386C233.021 612.368 219.859 641.123 210.458 652.503L481.304 681.3C488.538 674.808 479.917 659.558 474.488 652.503C465.046 641.123 451.827 612.368 474.488 588.386C497.149 564.405 483.93 538.425 474.488 528.433C462.449 521.216 445.595 496.291 474.488 454.324C497.149 421.682 477.792 396.868 465.282 388.541C453.951 382.99 434.265 362.062 446.162 322.759C457.799 284.313 443.505 267.3 435.366 257.613C435.184 257.398 435.006 257.185 434.831 256.977C427.868 248.666 404.977 231.02 342.187 227.008ZM309.246 311.393C305.614 295.028 319.061 292.402 323.026 295.147C328.929 299.234 343.086 302.478 342.312 282.234C343.108 302.49 351.861 298.424 357.487 293.912C361.266 290.881 375.015 292.511 372.64 309.106C370.265 325.701 380.688 324.591 386.197 321.961C390.742 319.788 399.962 318.957 400.482 333.021C400.7 350.128 411.383 352.75 416.414 349.379C415.428 382.851 399.24 448.224 342.31 448.224C283.616 448.224 269.307 382.281 268.34 349.379C268.365 349.858 268.312 348.906 268.34 349.379C273.567 352.372 284.727 354.318 283.616 337.254C283.039 323.201 292.205 323.357 296.86 325.192C302.501 327.411 312.877 327.758 309.246 311.393Z" fill="#FE7325"/>
<path d="M323.026 295.147C319.061 292.402 305.614 295.028 309.246 311.393C312.877 327.758 302.501 327.411 296.86 325.192C292.205 323.357 283.039 323.201 283.616 337.254C284.727 354.318 273.567 352.372 268.34 349.379C268.365 349.858 268.312 348.906 268.34 349.379C269.307 382.281 283.616 448.224 342.31 448.224C399.24 448.224 415.428 382.851 416.414 349.379C411.383 352.75 400.7 350.128 400.482 333.021C399.962 318.957 390.742 319.788 386.197 321.961C380.688 324.591 370.265 325.701 372.64 309.106C375.015 292.511 361.266 290.881 357.487 293.912C351.861 298.424 343.108 302.49 342.312 282.234C343.086 302.478 328.929 299.234 323.026 295.147Z" fill="#F5DAB1"/>
<path d="M342.31 227C342.269 227.003 342.228 227.005 342.187 227.008M481.981 681.372L481.304 681.3M342.063 227C342.104 227.003 342.145 227.005 342.187 227.008M480.412 682C480.733 681.78 481.03 681.547 481.304 681.3M268.34 349.379C273.567 352.372 284.727 354.318 283.616 337.254C283.039 323.201 292.205 323.357 296.86 325.192C302.501 327.411 312.877 327.758 309.246 311.393C305.614 295.028 319.061 292.402 323.026 295.147C328.929 299.234 343.086 302.478 342.312 282.234M268.34 349.379C268.312 348.906 268.365 349.858 268.34 349.379ZM268.34 349.379C266.316 311.401 272.844 254.002 342.31 252.417C416.414 256.977 420.178 311.393 416.414 349.379M268.34 349.379C269.307 382.281 283.616 448.224 342.31 448.224C399.24 448.224 415.428 382.851 416.414 349.379M342.31 282.176C342.31 282.195 342.311 282.214 342.312 282.234M416.414 349.379C411.383 352.75 400.7 350.128 400.482 333.021C399.962 318.957 390.742 319.788 386.197 321.961C380.688 324.591 370.265 325.701 372.64 309.106C375.015 292.511 361.266 290.881 357.487 293.912C351.861 298.424 343.108 302.49 342.312 282.234M342.187 227.008C279.666 231.025 255.109 252.4 249.943 256.977C247.142 259.459 226.816 283.456 238.662 322.759C250.507 362.062 230.906 382.99 219.624 388.541C207.168 396.868 187.895 421.682 210.458 454.324C239.226 496.291 222.445 521.216 210.458 528.433C201.057 538.425 187.895 564.405 210.458 588.386C233.021 612.368 219.859 641.123 210.458 652.503L481.304 681.3M342.187 227.008C404.977 231.02 427.868 248.666 434.831 256.977C435.006 257.185 435.184 257.398 435.366 257.613C443.505 267.3 457.799 284.313 446.162 322.759C434.265 362.062 453.951 382.99 465.282 388.541C477.792 396.868 497.149 421.682 474.488 454.324C445.595 496.291 462.449 521.216 474.488 528.433C483.93 538.425 497.149 564.405 474.488 588.386C451.827 612.368 465.046 641.123 474.488 652.503C479.917 659.558 488.538 674.808 481.304 681.3" stroke="#A24C1C" stroke-width="5" stroke-linecap="round" stroke-linejoin="bevel"/>
<path d="M233.973 407L274.109 387.976C272.302 382.141 267.848 363.878 267.848 355L213 358.016C223.539 358.121 241.24 371.96 222.458 386.073C227.049 383.537 236.978 379.351 241.486 387.976C245.994 396.6 237.73 403.195 233.973 407Z" fill="#11A44C"/>
<path d="M449.027 407L410.211 387.976C410.211 386.454 415.532 367.683 415.532 355.317L470 358.016C459.461 358.121 440.955 370.692 459.737 384.805C455.146 382.268 446.022 379.351 441.514 387.976C437.006 396.6 445.27 403.195 449.027 407Z" fill="#11A44C"/>
<path d="M268.094 362.927L241.799 367.366M270.598 378.78L249.312 385.122M415.219 362.927L441.514 367.366M412.089 378.78L433.375 385.122M274.109 387.976L233.973 407C237.73 403.195 245.994 396.6 241.486 387.976C236.978 379.351 227.049 383.537 222.458 386.073C241.24 371.96 223.539 358.121 213 358.016L267.848 355C267.848 363.878 272.302 382.141 274.109 387.976ZM410.211 387.976L449.027 407C445.27 403.195 437.006 396.6 441.514 387.976C446.022 379.351 455.146 382.268 459.737 384.805C440.955 370.692 459.461 358.121 470 358.016L415.532 355.317C415.532 367.683 410.211 386.454 410.211 387.976Z" stroke="#084621" stroke-width="5" stroke-linecap="round" stroke-linejoin="round"/>
<path d="M267.434 321.829C260.435 307.683 250.128 311.393 250.002 318.673C249.918 323.468 253.06 330.651 267.434 321.829Z" fill="#11A44C"/>
<path d="M270.867 300.662C268.427 285.107 257.468 285.642 255.163 292.558C253.645 297.115 254.49 304.892 270.867 300.662Z" fill="#11A44C"/>
<path d="M280.799 281.689C281.969 265.991 271.17 264.08 267.346 270.308C264.827 274.411 263.877 282.176 280.799 281.689Z" fill="#11A44C"/>
<path d="M280.178 282.027C292.015 271.523 300.142 278.756 297.5 285.537C295.759 290.004 290.13 295.49 280.178 282.027Z" fill="#11A44C"/>
<path d="M271.498 299.942C284.876 291.426 291.736 299.842 288.034 306.123C285.596 310.26 279.155 314.794 271.498 299.942Z" fill="#11A44C"/>
<path d="M267.434 321.829C260.435 307.683 250.128 311.393 250.002 318.673C249.918 323.468 253.06 330.651 267.434 321.829Z" stroke="#084621" stroke-width="5" stroke-linecap="round" stroke-linejoin="round"/>
<path d="M270.867 300.662C268.427 285.107 257.468 285.642 255.163 292.558C253.645 297.115 254.49 304.892 270.867 300.662Z" stroke="#084621" stroke-width="5" stroke-linecap="round" stroke-linejoin="round"/>
<path d="M280.799 281.689C281.969 265.991 271.17 264.08 267.346 270.308C264.827 274.411 263.877 282.176 280.799 281.689Z" stroke="#084621" stroke-width="5" stroke-linecap="round" stroke-linejoin="round"/>
<path d="M280.178 282.027C292.015 271.523 300.142 278.756 297.5 285.537C295.759 290.004 290.13 295.49 280.178 282.027Z" stroke="#084621" stroke-width="5" stroke-linecap="round" stroke-linejoin="round"/>
<path d="M271.498 299.942C284.876 291.426 291.736 299.842 288.034 306.123C285.596 310.26 279.155 314.794 271.498 299.942Z" stroke="#084621" stroke-width="5" stroke-linecap="round" stroke-linejoin="round"/>
<path d="M417.203 321.829C424.348 307.683 434.869 311.393 434.998 318.673C435.083 323.468 431.877 330.651 417.203 321.829Z" fill="#11A44C"/>
<path d="M413.698 300.662C416.19 285.107 427.376 285.642 429.729 292.558C431.279 297.115 430.416 304.892 413.698 300.662Z" fill="#11A44C"/>
<path d="M403.559 281.689C402.365 265.991 413.389 264.08 417.292 270.308C419.864 274.411 420.834 282.176 403.559 281.689Z" fill="#11A44C"/>
<path d="M404.194 282.027C392.11 271.523 383.813 278.756 386.511 285.537C388.288 290.004 394.034 295.49 404.194 282.027Z" fill="#11A44C"/>
<path d="M413.054 299.942C399.397 291.426 392.395 299.842 396.173 306.123C398.662 310.26 405.237 314.794 413.054 299.942Z" fill="#11A44C"/>
<path d="M417.203 321.829C424.348 307.683 434.869 311.393 434.998 318.673C435.083 323.468 431.877 330.651 417.203 321.829Z" stroke="#084621" stroke-width="5" stroke-linecap="round" stroke-linejoin="round"/>
<path d="M413.698 300.662C416.19 285.107 427.376 285.642 429.729 292.558C431.279 297.115 430.416 304.892 413.698 300.662Z" stroke="#084621" stroke-width="5" stroke-linecap="round" stroke-linejoin="round"/>
<path d="M403.559 281.689C402.365 265.991 413.389 264.08 417.292 270.308C419.864 274.411 420.834 282.176 403.559 281.689Z" stroke="#084621" stroke-width="5" stroke-linecap="round" stroke-linejoin="round"/>
<path d="M404.194 282.027C392.11 271.523 383.813 278.756 386.511 285.537C388.288 290.004 394.034 295.49 404.194 282.027Z" stroke="#084621" stroke-width="5" stroke-linecap="round" stroke-linejoin="round"/>
<path d="M413.054 299.942C399.397 291.426 392.395 299.842 396.173 306.123C398.662 310.26 405.237 314.794 413.054 299.942Z" stroke="#084621" stroke-width="5" stroke-linecap="round" stroke-linejoin="round"/>
<path d="M119.309 738.333C119.1 717.003 147.495 668.446 241.716 642.349L269.281 630.429C270.262 627.66 275.519 621.4 288.701 616H395.827C411.242 626.469 416.868 636.673 417.754 640.467L452.21 673.089C470.377 676.435 525.507 692.537 525.507 756.527C566.854 774.092 541.586 924.656 525.507 983H46.2578C42.2901 948.914 36.7354 866.438 46.2578 809.224C55.7801 752.01 97.1734 737.915 119.309 738.333Z" fill="#818181"/>
<path d="M119.309 738.333C119.1 717.003 147.495 668.446 241.716 642.349L269.281 630.429C270.262 627.66 275.519 621.4 288.701 616H395.827C411.242 626.469 416.868 636.673 417.754 640.467L452.21 673.089C470.377 676.435 525.507 692.537 525.507 756.527M119.309 738.333C97.1734 737.915 55.7801 752.01 46.2578 809.224C36.7354 866.438 42.2901 948.914 46.2578 983H525.507C541.586 924.656 566.853 774.092 525.507 756.527M119.309 738.333C129.959 736.451 139.226 745.987 140.228 764.055M525.507 756.527C507.965 752.24 469.312 752.574 455.029 788.208" stroke="#5F5F5F" stroke-width="5" stroke-linecap="round" stroke-linejoin="round"/>
<path d="M326.745 446L326.049 471.73C292.195 484.281 285.306 495.578 282.742 506.874C295.295 494.353 300.316 501.657 302.199 506.874C306.278 501.005 315.003 492.788 323.539 506.874C331.07 493.049 341.74 501.113 344.879 506.874C348.435 500.787 356.553 492.266 365.591 506.874C372.809 491.185 382.433 500.244 384.42 506.874C385.989 501.439 393.835 493.831 403.877 506.874C401.312 495.578 393.796 483.026 359.942 470.475V453.945V446C348.165 448.987 338.522 449.36 326.745 446Z" fill="#F5DAB1"/>
<path fill-rule="evenodd" clip-rule="evenodd" d="M403.877 506.874C404.393 509.146 404.833 512.028 405.159 515.346C406.453 528.52 405.945 548.567 401.233 564.61C399.971 567.772 398.898 570.828 397.995 573.778C387.526 585.545 377.715 578.116 376.075 572.768C373.94 579.471 363.603 588.629 355.851 572.768C346.143 587.536 337.424 578.921 333.604 572.768C330.233 578.592 318.773 586.745 310.683 572.768C301.686 586.744 291.261 580.191 286.758 574.29C285.992 571.943 285.746 568.342 284.758 565.865C280.03 549.77 279.938 528.838 281.408 515.346C281.772 512.003 282.232 509.117 282.742 506.874C295.295 494.353 300.316 501.657 302.199 506.874C306.278 501.005 315.003 492.788 323.539 506.874C331.07 493.049 341.74 501.113 344.879 506.874C348.435 500.787 356.553 492.266 365.591 506.874C372.809 491.185 382.433 500.244 384.42 506.874C385.989 501.439 393.835 493.831 403.877 506.874ZM279.116 636.152C276.479 638.858 269.608 641.433 260.281 644.928C254.389 647.136 247.465 649.888 240.062 653.096C193.09 673.446 124.785 719.074 149.633 858.042C155.044 896.543 168.316 946.835 179.18 852.033C190.227 755.64 251.15 745.975 277.093 763.547C305.023 782.465 395.38 793.984 428.355 730.286C433.46 714.06 434.12 699.277 432.183 686.272L425.032 661.919C419.775 650.181 412.833 641.012 406.876 634.897C405.567 633.587 404.062 631.811 402.551 629.562C400.041 627.052 397.81 634.091 397.601 637.924L397.598 637.92C394.666 634.294 387.305 625.186 381.282 638.809C368.395 629.798 365.438 634.157 360.25 641.807L360.248 641.81C359.752 642.542 359.235 643.304 358.687 644.087C349.37 631.222 342.368 635.114 337.347 644.087C335.293 637.941 327.531 628.43 318.38 641.006C312.553 625.852 303.144 632.713 298.434 637.924C297.471 632.496 292.76 625.59 279.116 636.152Z" fill="#11A44C"/>
<path d="M279.116 636.152C292.76 625.59 297.471 632.496 298.434 637.924C303.144 632.713 312.553 625.852 318.38 641.006C327.531 628.43 335.293 637.941 337.347 644.087C342.368 635.114 349.37 631.222 358.687 644.087C359.235 643.304 359.752 642.542 360.248 641.81L360.25 641.807C365.438 634.157 368.395 629.798 381.282 638.809C387.305 625.186 394.666 634.294 397.598 637.92L397.601 637.924C397.81 634.091 400.041 627.052 402.551 629.562C396.069 619.909 389.497 601.532 397.995 573.778C387.526 585.545 377.715 578.116 376.075 572.768C373.94 579.471 363.603 588.629 355.851 572.768C346.143 587.536 337.424 578.921 333.604 572.768C330.233 578.592 318.773 586.745 310.683 572.768C301.686 586.744 291.261 580.191 286.758 574.29C298.313 609.692 286.171 629.089 279.116 636.152Z" fill="#F5DAB1"/>
<path d="M284.758 565.865C280.03 549.77 279.938 528.838 281.408 515.346L240.062 653.096C247.465 649.888 254.389 647.136 260.281 644.928C262.258 644.188 263.497 643.488 265.236 642.82L286.758 574.29C285.992 571.943 285.746 568.342 284.758 565.865Z" fill="#F5DAB1"/>
<path d="M405.159 515.346C406.453 528.52 405.945 548.567 401.233 564.61C399.971 567.772 398.898 570.828 397.995 573.778L425.032 661.919C428.253 669.11 430.841 677.264 432.183 686.272L439.025 709.577C452.624 713.447 479.445 719.492 477.939 710.204C476.433 700.916 463.922 695.456 457.854 693.887L405.159 515.346Z" fill="#F5DAB1"/>
<path d="M187.854 812.497C183.935 823.655 180.931 836.755 179.18 852.033C168.316 946.835 155.044 896.543 149.633 858.042C146.691 841.59 145.055 826.446 144.535 812.497C58.673 852.159 77.5908 906.004 89.5157 918.555C99.3672 928.924 128.179 955.079 89.5157 973.153C114.376 976.675 164.655 976.914 165.147 947.67C165.142 947.381 165.142 947.09 165.147 946.795C165.152 947.09 165.152 947.381 165.147 947.67C165.642 976.967 215.987 976.94 240.727 973.412C202.253 955.31 230.924 929.113 240.727 918.727C252.594 906.156 273.297 852.222 187.854 812.497Z" fill="#6BD294"/>
<path d="M359.942 453.945V446C348.165 448.987 338.522 449.36 326.745 446L326.049 471.73C292.195 484.281 285.306 495.578 282.742 506.874M359.942 453.945V470.475C393.796 483.026 401.312 495.578 403.877 506.874M359.942 453.945C358.331 456.97 353.955 462.414 348.399 459.994M326.745 453.945C328.356 456.969 332.966 462.414 338.522 459.994M403.877 506.874C406.442 518.17 407.132 544.528 401.233 564.61M403.877 506.874C393.835 493.831 385.989 501.439 384.42 506.874C382.433 500.244 372.809 491.185 365.591 506.874C356.553 492.266 348.435 500.787 344.879 506.874C341.74 501.113 331.07 493.049 323.539 506.874C315.003 492.788 306.278 501.005 302.199 506.874C300.316 501.657 295.295 494.353 282.742 506.874M403.877 506.874C404.393 509.146 404.833 512.028 405.159 515.346M401.233 564.61C405.945 548.567 406.453 528.52 405.159 515.346M401.233 564.61C399.971 567.772 398.898 570.828 397.995 573.778M406.876 634.897C412.833 641.012 419.775 650.181 425.032 661.919M406.876 634.897C405.567 633.587 404.062 631.811 402.551 629.562M406.876 634.897C399.95 627.964 387.517 607.999 397.995 573.778M179.18 852.033C190.227 755.64 251.15 745.975 277.093 763.547C305.023 782.465 395.38 793.984 428.355 730.286C433.46 714.06 434.12 699.277 432.183 686.272M179.18 852.033C168.316 946.835 155.044 896.543 149.633 858.042M179.18 852.033C180.931 836.755 183.935 823.655 187.854 812.497C273.297 852.222 252.594 906.156 240.727 918.727C230.924 929.113 202.253 955.31 240.727 973.412C215.987 976.94 165.642 976.967 165.147 947.67M149.367 856.113C149.454 856.752 149.542 857.395 149.633 858.042M282.742 506.874C280.177 518.17 278.859 545.783 284.758 565.865M282.742 506.874C282.232 509.117 281.772 512.003 281.408 515.346M284.758 565.865C280.03 549.77 279.938 528.838 281.408 515.346M284.758 565.865C285.746 568.342 285.992 571.943 286.758 574.29M279.116 636.152C292.76 625.59 297.471 632.496 298.434 637.924C303.144 632.713 312.553 625.852 318.38 641.006C327.531 628.43 335.293 637.941 337.347 644.087C342.368 635.114 349.37 631.222 358.687 644.087C359.235 643.304 359.752 642.542 360.248 641.81L360.25 641.807C365.438 634.157 368.395 629.798 381.282 638.809C387.305 625.186 394.666 634.294 397.598 637.92L397.601 637.924C397.81 634.091 400.041 627.052 402.551 629.562M279.116 636.152C276.479 638.858 269.608 641.433 260.281 644.928M279.116 636.152C286.171 629.089 298.313 609.692 286.758 574.29M149.681 858.309C149.665 858.22 149.649 858.131 149.633 858.042M281.408 515.346L240.062 653.096M240.062 653.096C193.09 673.446 124.785 719.074 149.633 858.042M240.062 653.096C247.465 649.888 254.389 647.136 260.281 644.928M286.758 574.29L265.236 642.82C263.497 643.488 262.258 644.188 260.281 644.928M286.758 574.29C291.261 580.191 301.686 586.744 310.683 572.768C318.773 586.745 330.233 578.592 333.604 572.768C337.424 578.921 346.143 587.536 355.851 572.768C363.603 588.629 373.94 579.471 376.075 572.768C377.715 578.116 387.526 585.545 397.995 573.778M286.758 574.29C286.839 574.4 286.672 574.178 286.758 574.29ZM405.159 515.346L457.854 693.887C463.922 695.456 476.433 700.916 477.939 710.204C479.445 719.492 452.624 713.447 439.025 709.577L432.183 686.272M397.995 573.778L425.032 661.919M397.995 573.778C398.281 573.456 397.707 574.13 397.995 573.778ZM397.995 573.778C389.497 601.532 396.069 619.909 402.551 629.562M294.667 536.41C297.979 525.517 307.22 517.583 313.496 536.41M374.378 536.41C377.69 525.517 386.931 517.583 393.207 536.41M359.314 560.257C362.627 549.365 371.867 541.43 378.144 560.257M312.241 560.257C315.554 549.365 324.794 541.43 331.07 560.257M336.719 633.054C340.032 622.162 349.272 614.228 355.548 633.054M334.836 527.624C338.149 516.731 347.389 508.797 353.666 527.624M368.729 615.483C372.042 604.59 381.282 596.656 387.558 615.483M295.922 621.758C299.235 610.866 308.475 602.931 314.752 621.758M344.251 674.473C347.563 663.581 356.804 655.647 363.08 674.474M364.963 737.857C368.276 726.965 377.516 719.031 383.792 737.857M302.826 709.617C306.139 698.725 315.379 690.79 321.656 709.617M155.957 838.267C159.27 827.375 168.51 819.441 174.787 838.268M165.372 782.414C168.685 771.522 177.925 763.588 184.201 782.414M174.787 732.209C178.099 721.317 187.34 713.383 193.616 732.209M388.814 694.556C392.126 683.663 401.367 675.729 407.643 694.556M316.007 754.802C319.319 743.909 328.56 735.975 334.836 754.802M221.232 700.204C224.545 689.311 233.785 681.377 240.062 700.204M236.296 743.505C239.609 732.613 248.849 724.679 255.125 743.506M258.264 665.06C261.576 654.168 270.816 646.233 277.093 665.06M149.633 858.042C146.691 841.59 145.055 826.446 144.535 812.497C58.673 852.159 77.5908 906.004 89.5157 918.555C99.3672 928.924 128.179 955.079 89.5157 973.153C114.376 976.675 164.655 976.914 165.147 947.67M432.183 686.272L425.032 661.919M432.183 686.272C430.841 677.264 428.253 669.11 425.032 661.919M165.147 947.67C165.142 947.381 165.142 947.09 165.147 946.795C165.152 947.09 165.152 947.381 165.147 947.67Z" stroke="#084621" stroke-width="5" stroke-linecap="round" stroke-linejoin="round"/>
<ellipse cx="342.459" cy="400.996" rx="5.32843" ry="2.82093" fill="#FFAFA3" stroke="#FF8E7D" stroke-width="5"/>
<path d="M330.863 418.235L343.087 426.071L354.998 418.235" stroke="#084621" stroke-width="5" stroke-linecap="round" stroke-linejoin="bevel"/>
<path d="M299.526 400.683C299.526 401.094 299.197 401.991 297.507 402.93C295.902 403.822 293.516 404.452 290.743 404.452C287.97 404.452 285.583 403.822 283.978 402.93C282.288 401.991 281.959 401.094 281.959 400.683C281.959 400.272 282.288 399.374 283.978 398.436C285.583 397.544 287.97 396.914 290.743 396.914C293.516 396.914 295.902 397.544 297.507 398.436C299.197 399.374 299.526 400.272 299.526 400.683Z" fill="#FFAFA3" stroke="#FF8E7D" stroke-width="5"/>
<path d="M401.706 400.683C401.706 401.094 401.377 401.991 399.687 402.93C398.082 403.822 395.695 404.452 392.922 404.452C390.15 404.452 387.763 403.822 386.158 402.93C384.468 401.991 384.139 401.094 384.139 400.683C384.139 400.272 384.468 399.374 386.158 398.436C387.763 397.544 390.15 396.914 392.922 396.914C395.695 396.914 398.082 397.544 399.687 398.436C401.377 399.374 401.706 400.272 401.706 400.683Z" fill="#FFAFA3" stroke="#FF8E7D" stroke-width="5"/>
<path fill-rule="evenodd" clip-rule="evenodd" d="M324.469 394.413C329.342 385.364 330.968 365.908 307.042 350.096L310.176 390.961C315.096 392.648 320.055 393.777 324.469 394.413Z" fill="#084621"/>
<path d="M307.042 350.096C302.239 346.923 296.407 343.896 289.365 341.129C272.18 369.103 290.876 384.339 310.176 390.961L307.042 350.096Z" fill="white"/>
<path d="M307.042 350.096C302.239 346.923 296.407 343.896 289.365 341.129C272.18 369.103 290.876 384.339 310.176 390.961M307.042 350.096C330.968 365.908 329.342 385.364 324.469 394.413C320.055 393.777 315.096 392.648 310.176 390.961M307.042 350.096L310.176 390.961" stroke="#084621" stroke-width="5" stroke-linejoin="round"/>
<path fill-rule="evenodd" clip-rule="evenodd" d="M379.47 350.096C384.273 346.923 390.106 343.896 397.149 341.129C414.334 369.103 395.638 384.339 376.336 390.961L379.47 350.096Z" fill="#084621"/>
<path d="M362.042 394.413C357.169 385.364 355.542 365.908 379.47 350.096L376.336 390.961C371.416 392.648 366.456 393.777 362.042 394.413Z" fill="white"/>
<path d="M379.47 350.096C384.273 346.923 390.106 343.896 397.149 341.129C414.334 369.103 395.638 384.339 376.336 390.961M379.47 350.096C355.542 365.908 357.169 385.364 362.042 394.413C366.456 393.777 371.416 392.648 376.336 390.961M379.47 350.096L376.336 390.961" stroke="#084621" stroke-width="5" stroke-linejoin="round"/>
<path d="M297.011 385.323L291.996 390.652" stroke="#084621" stroke-width="5" stroke-linecap="round" stroke-linejoin="round"/>
<path d="M291.997 381.875L286.982 387.203" stroke="#084621" stroke-width="5" stroke-linecap="round" stroke-linejoin="round"/>
<path d="M390.417 385.637L395.432 390.652" stroke="#084621" stroke-width="5" stroke-linecap="round" stroke-linejoin="round"/>
<path d="M395.43 381.875L400.445 387.517" stroke="#084621" stroke-width="5" stroke-linecap="round" stroke-linejoin="round"/>
<path d="M-16.1855 120.814C-34.1614 138.091 -48.3388 154.797 -68 153.357V172H420.721V153.357C370.164 147.792 403.869 97.66 446 86.864C409.486 80.3853 359.223 90.5806 342.371 120.814C324.395 138.091 316.798 153.09 297.137 151.651C249.388 146.085 280.284 97.66 322.415 86.864C285.902 80.3853 239.014 90.5806 222.161 120.814C204.185 138.091 193.213 152.564 178.969 151.628C128.701 145.957 162.373 97.6457 204.448 86.864C167.934 80.3853 118.804 90.5806 101.952 120.814C83.9756 138.091 76.016 153.09 56.3548 151.651C8.60621 146.085 38.7322 97.66 80.8634 86.864C44.3497 80.3853 0.666969 90.5806 -16.1855 120.814Z" fill="#4787C6"/>
<path d="M179.169 151.651C128.612 146.085 162.317 97.66 204.448 86.864C167.934 80.3853 118.804 90.5806 101.952 120.814C83.9757 138.091 76.016 153.09 56.3548 151.651C8.60621 146.085 38.7322 97.66 80.8634 86.864C44.3497 80.3853 0.666973 90.5806 -16.1855 120.814C-34.1614 138.091 -48.3388 154.797 -68 153.357V172H420.721V153.357C370.164 147.792 403.869 97.66 446 86.864C409.486 80.3853 359.223 90.5806 342.371 120.814C324.395 138.091 316.798 153.09 297.137 151.651C249.388 146.085 280.284 97.66 322.415 86.864C285.902 80.3853 239.014 90.5806 222.161 120.814C204.185 138.091 193.213 152.564 178.969 151.628" stroke="#134D86" stroke-width="4"/>
<rect x="-71" y="155" width="515" height="45" fill="#4787C6"/>
<path d="M666.815 554.814C648.839 572.091 634.661 588.797 615 587.357V606H1103.72V587.357C1053.16 581.792 1086.87 531.66 1129 520.864C1092.49 514.385 1042.22 524.581 1025.37 554.814C1007.39 572.091 999.798 587.09 980.137 585.651C932.388 580.085 963.284 531.66 1005.42 520.864C968.902 514.385 922.014 524.581 905.161 554.814C887.185 572.091 876.213 586.564 861.969 585.628C811.701 579.957 845.373 531.646 887.448 520.864C850.934 514.385 801.804 524.581 784.952 554.814C766.976 572.091 759.016 587.09 739.355 585.651C691.606 580.085 721.732 531.66 763.863 520.864C727.35 514.385 683.667 524.581 666.815 554.814Z" fill="#4787C6"/>
<path d="M862.169 585.651C811.612 580.085 845.317 531.66 887.448 520.864C850.934 514.385 801.804 524.581 784.952 554.814C766.976 572.091 759.016 587.09 739.355 585.651C691.606 580.085 721.732 531.66 763.863 520.864C727.35 514.385 683.667 524.581 666.815 554.814C648.839 572.091 634.661 588.797 615 587.357V606H1103.72V587.357C1053.16 581.792 1086.87 531.66 1129 520.864C1092.49 514.385 1042.22 524.581 1025.37 554.814C1007.39 572.091 999.798 587.09 980.137 585.651C932.388 580.085 963.284 531.66 1005.42 520.864C968.902 514.385 922.014 524.581 905.161 554.814C887.185 572.091 876.213 586.564 861.969 585.628" stroke="#134D86" stroke-width="4"/>
<rect x="582" y="589" width="515" height="80" fill="#4787C6"/>
<path d="M93.8145 934.814C75.8386 952.091 61.6612 968.797 42 967.357V986H530.721V967.357C480.164 961.792 513.869 911.66 556 900.864C519.486 894.385 469.223 904.581 452.371 934.814C434.395 952.091 426.798 967.09 407.137 965.651C359.388 960.085 390.284 911.66 432.415 900.864C395.902 894.385 349.014 904.581 332.161 934.814C314.185 952.091 303.213 966.564 288.969 965.628C238.701 959.957 272.373 911.646 314.448 900.864C277.934 894.385 228.804 904.581 211.952 934.814C193.976 952.091 186.016 967.09 166.355 965.651C118.606 960.085 148.732 911.66 190.863 900.864C154.35 894.385 110.667 904.581 93.8145 934.814Z" fill="#4787C6"/>
<path d="M289.169 965.651C238.612 960.085 272.317 911.66 314.448 900.864C277.934 894.385 228.804 904.581 211.952 934.814C193.976 952.091 186.016 967.09 166.355 965.651C118.606 960.085 148.732 911.66 190.863 900.864C154.35 894.385 110.667 904.581 93.8145 934.814C75.8386 952.091 61.6612 968.797 42 967.357V986H530.721V967.357C480.164 961.792 513.869 911.66 556 900.864C519.486 894.385 469.223 904.581 452.371 934.814C434.395 952.091 426.798 967.09 407.137 965.651C359.388 960.085 390.284 911.66 432.415 900.864C395.902 894.385 349.014 904.581 332.161 934.814C314.185 952.091 303.213 966.564 288.969 965.628" stroke="#134D86" stroke-width="4"/>
<rect x="18" y="970" width="515" height="80" fill="#4787C6"/>
</g>
<defs>
<clipPath id="clip0_1459_8489">
<rect width="697" height="1024" fill="white"/>
</clipPath>
</defs>
</svg>
