<svg width="700" height="1024" viewBox="0 0 700 1024" fill="none" xmlns="http://www.w3.org/2000/svg">
<g clip-path="url(#clip0_1459_8521)">
<rect width="700" height="1024" transform="matrix(-1 0 0 1 700 0)" fill="#372616"/>
<path d="M107.189 1311C87.753 369.656 -45.8105 367.011 -45.8105 1311H107.189Z" fill="#1A1A1A" stroke="#2A2A2A" stroke-width="5"/>
<path d="M140.189 -4C130.281 475.326 62.1895 476.673 62.1895 -4H140.189Z" fill="#1A1A1A" stroke="#2A2A2A" stroke-width="5"/>
<path d="M62.1895 -63C52.5347 404.343 -13.8105 405.656 -13.8105 -63H62.1895Z" fill="#2A2A2A" stroke="#1A1A1A" stroke-width="5"/>
<path d="M390.189 721L585.189 1024H0.189453L195.189 721H390.189Z" fill="#783A00" fill-opacity="0.3" stroke="#783A00" stroke-opacity="0.3"/>
<path d="M845.891 759.167C869.143 793.362 808.39 880.45 807.39 881.556C790.564 900.183 779.02 902.58 752.391 901.556C728.33 900.63 703.877 897.556 679.058 897.556C642.547 897.556 607.47 909.556 571.058 909.556C550.122 909.556 529.606 905.556 508.391 905.556C491.777 905.556 468.79 905.365 453.28 899.333C433.754 891.74 441.28 866.765 441.28 849.333C441.28 832.795 437.49 813.788 451.502 801.778C468.204 787.462 480.749 772.894 501.502 763.556C520.124 755.176 539.639 749.063 558.169 740.667C611.437 716.53 636.862 662 700.169 662C757.152 662 816.485 715.922 845.891 759.167Z" fill="#1A1A1A"/>
<path d="M807.39 881.556C807.596 881.508 807.185 881.603 807.39 881.556ZM807.39 881.556C808.39 880.45 869.143 793.362 845.891 759.167C816.485 715.922 757.152 662 700.169 662C636.862 662 611.437 716.53 558.169 740.667C539.639 749.063 520.124 755.176 501.502 763.556C480.749 772.894 468.204 787.462 451.502 801.778C437.49 813.788 441.28 832.795 441.28 849.333C441.28 866.765 433.754 891.74 453.28 899.333C468.79 905.365 491.777 905.556 508.391 905.556C529.606 905.556 550.122 909.556 571.058 909.556C607.47 909.556 642.547 897.556 679.058 897.556C703.877 897.556 728.33 900.63 752.391 901.556C779.02 902.58 790.564 900.183 807.39 881.556ZM806.266 764.632C792.206 772.2 778.129 779.728 764.407 787.904C753.836 794.203 743.852 800.411 736.351 810.329C727.848 821.571 721.944 834.608 715.671 847.155M758.726 754.765C744.797 768.173 729.129 781.371 717.465 796.923M770.387 807.688C745.997 789.019 721.819 769.955 696.834 752.075C692.272 748.81 691.602 748.392 687.864 746.693" stroke="#2A2A2A" stroke-width="5" stroke-linecap="round"/>
<path d="M1011.89 742.035C1037.43 742.035 1149.52 793.058 986.356 1027.96C969.587 1042.32 914.284 1056.92 827.224 1000.46C757.664 1012.47 660.939 1065.04 596.357 1027.96C523.067 985.886 511.128 942.483 558.219 852.033C593.703 783.879 660.362 801.339 720.056 767.545C800.311 732.093 813.138 711.062 926.994 742.035C997.632 761.251 986.356 742.035 1011.89 742.035Z" fill="#2A2A2A"/>
<path d="M926.994 1000.46C904.667 990.122 869.158 993.23 827.224 1000.46M827.224 1000.46C757.664 1012.47 660.939 1065.04 596.357 1027.96C523.067 985.886 511.128 942.483 558.219 852.033C593.703 783.879 660.362 801.339 720.056 767.545C800.311 732.093 813.138 711.062 926.994 742.035C997.632 761.251 986.356 742.035 1011.89 742.035C1037.43 742.035 1149.52 793.058 986.356 1027.96C969.587 1042.32 914.284 1056.92 827.224 1000.46ZM827.224 804.321L720.056 818.237M796.663 825.526L720.056 836.791M782.734 784.442L747.25 871.911" stroke="#1E1E1E" stroke-width="5"/>
<path d="M-34.8907 1456.41C279.902 569.051 155.908 519.332 -177.999 1402.29L-34.8907 1456.41Z" fill="#2A2A2A" stroke="#1A1A1A" stroke-width="5"/>
<path d="M528.873 696.929C515.663 675.264 510.907 695.344 512.492 704.327C515.452 722.081 524.646 714.895 528.873 709.083L538.884 706.802L597.537 698.348L628.742 696.929C732.545 689.949 808.72 699.321 795.954 652.961C785.914 616.501 723.034 638.694 623.458 671.566L598.858 679.325L535.185 694.913L528.873 696.929Z" fill="#57270C" stroke="#031221" stroke-width="5" stroke-linecap="round" stroke-linejoin="round"/>
<path d="M278.116 264.789C229.15 270.425 128.471 287.933 117.48 312.874C106.489 337.815 101.099 378.837 102.156 396.098C101.804 398.916 108.18 454.593 117.48 480.379C75.2072 571.794 111.491 647.708 117.48 662.151C83.3977 680.91 106.647 707.858 115.895 712.614C124.349 716.962 149.28 715.785 152.355 712.614C165.036 705.745 166.886 683.111 164.508 674.833C164.332 673.688 164.719 671.24 157.11 662.151C159.576 658.1 164.508 646.363 164.508 626.072C198.614 698.595 293.711 714.834 354.616 714.834C418.539 714.834 500.426 706.504 529.875 633.617C531.566 647.567 538.532 658.189 541.79 662.152C534.181 671.241 534.569 673.689 534.393 674.834C532.015 683.112 533.864 705.746 546.546 712.615C549.62 715.786 574.552 716.963 583.006 712.615C592.253 707.859 615.503 680.911 581.421 662.152C587.409 647.709 623.693 571.794 581.421 480.38C590.721 454.593 597.097 398.917 596.745 396.099C597.802 378.837 592.412 337.815 581.421 312.874C570.43 287.933 469.751 270.425 420.785 264.789H278.116Z" fill="#FFAB48"/>
<path d="M164.508 674.833C166.886 683.111 165.036 705.745 152.355 712.614C149.28 715.785 124.349 716.962 115.895 712.614C106.647 707.858 83.3977 680.91 117.48 662.151C111.491 647.708 75.2072 571.794 117.48 480.379C108.18 454.593 101.804 398.916 102.156 396.098C101.099 378.837 106.489 337.815 117.48 312.874C128.471 287.933 229.15 270.425 278.116 264.789H420.785C469.751 270.425 570.43 287.933 581.421 312.874C592.412 337.815 597.802 378.837 596.745 396.099C597.097 398.917 590.721 454.593 581.421 480.38C623.693 571.794 587.409 647.709 581.421 662.152C615.503 680.911 592.253 707.859 583.006 712.615C574.552 716.963 549.62 715.786 546.546 712.615C533.864 705.746 532.015 683.112 534.393 674.834C534.569 673.689 534.181 671.241 541.79 662.152C538.532 658.189 531.566 647.567 529.875 633.617C500.426 706.504 418.539 714.834 354.616 714.834M164.508 674.833C168.101 693.222 153.588 695.001 146.542 693.856C137.207 690.421 121.496 680.381 133.332 667.699M164.508 674.833C164.332 673.688 164.719 671.24 157.11 662.151C159.576 658.1 164.508 646.363 164.508 626.072C198.614 698.595 293.711 714.834 354.616 714.834M208.139 334.539C185.578 363.1 147.225 428.439 174.298 461.304C90.2833 677.274 261.99 714.834 354.616 714.834M354.616 714.834C451.433 714.834 589.459 695.726 524.089 462.149M490.007 334.539C512.66 363.112 551.17 428.478 523.986 461.357" stroke="#9B5B1E" stroke-width="5" stroke-linecap="round" stroke-linejoin="round"/>
<path d="M174.547 461.885C179.831 466.64 195.789 475.729 217.348 474.038" stroke="#9B5B1E" stroke-width="5" stroke-linecap="round" stroke-linejoin="round"/>
<path d="M524.354 461.356C518.743 467.252 501.8 478.52 478.911 476.424" stroke="#9B5B1E" stroke-width="5" stroke-linecap="round" stroke-linejoin="round"/>
<path d="M347.261 617.765C331.937 617.765 319.732 627.694 317.933 638.52" stroke="#9B5B1E" stroke-width="5" stroke-linecap="round" stroke-linejoin="round"/>
<path d="M357.918 670.187C362.265 668.919 371.572 663.709 374.018 653.01" stroke="#9B5B1E" stroke-width="5" stroke-linecap="round" stroke-linejoin="round"/>
<path d="M332.465 657.924L359.942 634.674" stroke="#9B5B1E" stroke-width="5" stroke-linecap="round" stroke-linejoin="round"/>
<path d="M330.957 634.674L358.434 657.924" stroke="#9B5B1E" stroke-width="5" stroke-linecap="round" stroke-linejoin="round"/>
<path d="M512.942 456.25L493.706 462.823" stroke="#9B5B1E" stroke-width="5" stroke-linecap="round" stroke-linejoin="round"/>
<path d="M178.775 453.43L196.741 462.941" stroke="#9B5B1E" stroke-width="5" stroke-linecap="round" stroke-linejoin="round"/>
<path d="M476.358 449.506C486.786 437.877 507.622 408.104 499.369 392.722C497.66 389.536 495.278 387.047 492.531 385.29C480.836 377.81 462.537 383.616 461.489 405.531C441.734 384.429 419.679 401.129 423.218 418.471C425.414 429.231 434.007 436.524 445.468 441.494C454.55 445.433 465.431 447.913 476.358 449.506Z" fill="#FE4725"/>
<path d="M445.468 441.494C454.55 445.433 465.431 447.913 476.358 449.506C486.786 437.877 507.622 408.104 499.369 392.722C497.66 389.536 495.278 387.047 492.531 385.29M445.468 441.494C434.007 436.524 425.414 429.231 423.218 418.471C419.679 401.129 441.734 384.429 461.489 405.531C462.537 383.616 480.836 377.81 492.531 385.29M445.468 441.494L435.275 453.694M435.275 453.694L433.54 466.273M435.275 453.694L423.218 454.778M492.531 385.29L502.508 371.496M502.508 371.496L502.508 382.774M502.508 371.496L492.531 374.315" stroke="#9D2C17" stroke-width="5" stroke-linecap="round" stroke-linejoin="round"/>
<path d="M451.561 430.442C451.198 429.315 450.471 427.919 449.379 426.253C448.288 424.588 447.222 423.133 446.182 421.888L446.007 421.969L446.69 425.027C447.082 426.767 447.59 428.603 448.213 430.538C448.586 431.695 449.146 432.338 449.894 432.467L449.943 432.855C449.203 433.009 448.429 433.216 447.622 433.476C446.815 433.737 446.028 434.058 445.26 434.439L444.97 433.852C445.21 433.607 445.592 433.332 446.116 433.029L444.039 419.149C443.487 419.209 443.014 419.202 442.62 419.127L442.513 418.481C443.455 418.328 444.566 418.046 445.845 417.634C447.125 417.222 448.189 416.82 449.038 416.429L449.231 416.795C448.758 417.099 448.582 417.441 448.705 417.822C448.798 418.111 449.31 419.047 450.24 420.63C451.186 422.208 451.994 423.57 452.666 424.715L453.009 425.311L453.216 425.168C452.986 424.301 452.785 421.432 452.611 416.563C452.488 416.182 452.21 415.995 451.774 416.001L451.718 415.59C452.524 415.431 453.589 415.138 454.914 414.712C456.239 414.285 457.278 413.883 458.031 413.506L458.329 414.04C458.078 414.306 457.765 414.558 457.388 414.797C457.434 415.253 457.614 415.968 457.928 416.943C458.237 417.902 458.948 419.665 460.061 422.231C461.169 424.783 462.041 426.628 462.677 427.768C463.381 427.659 463.956 427.616 464.401 427.641L464.524 428.257C463.505 428.434 462.348 428.731 461.054 429.148C459.76 429.565 458.685 429.987 457.831 430.414L457.541 429.826C457.771 429.55 458.075 429.293 458.452 429.054C457.288 425.546 455.957 422.276 454.459 419.246L454.292 419.274C454.291 422.351 454.346 424.451 454.456 425.576C454.566 426.7 454.749 427.658 455.004 428.45C453.842 429.329 452.884 430.268 452.13 431.267L451.781 431.203C451.743 431.031 451.669 430.777 451.561 430.442ZM463.654 423.469C463.163 421.946 463.242 420.366 463.891 418.728C464.54 417.09 465.536 415.693 466.878 414.538C468.172 414.121 469.553 413.919 471.02 413.934C471.238 413.41 471.342 412.847 471.333 412.245L471.887 412.243C472.013 413.833 472.648 416.402 473.791 419.95C474.297 421.519 474.755 422.733 475.166 423.592C475.586 423.642 476.044 423.603 476.541 423.477L476.703 423.979C475.059 424.509 473.425 425.204 471.802 426.063L471.591 425.955C471.478 424.613 471.213 423.294 470.795 422L470.56 422.051C470.482 423.74 469.975 425.374 469.038 426.954C467.896 427.322 466.815 427.149 465.795 426.435C464.77 425.707 464.056 424.718 463.654 423.469ZM466.947 421.248C467.62 423.334 468.283 424.272 468.938 424.061C469.197 423.977 469.438 423.631 469.662 423.021C469.901 422.406 470.043 421.57 470.089 420.513C469.466 418.579 469.018 417.294 468.747 416.659C468.194 416.299 467.59 416.225 466.935 416.436C466.585 416.549 466.285 416.687 466.035 416.852C466.118 418.153 466.422 419.618 466.947 421.248ZM468.732 409.729C469.631 409.44 470.19 408.932 470.41 408.205L471.083 408.417C470.442 410.338 469.725 411.713 468.932 412.539C468.521 412.672 467.734 412.707 466.57 412.645C465.407 412.583 464.605 412.623 464.163 412.765C463.295 413.045 462.767 413.543 462.577 414.259L461.904 414.048C462.51 412.172 463.465 410.729 464.771 409.72C466.224 410.109 467.545 410.112 468.732 409.729ZM483.051 419.74C483.629 419.554 484.151 419.217 484.617 418.731C485.077 418.23 485.432 417.662 485.681 417.027L486.059 417.182C485.66 419.177 484.622 420.94 482.947 422.472C481.333 422.992 479.904 422.965 478.66 422.391C477.431 421.812 476.579 420.784 476.103 419.306C475.622 417.814 475.713 416.246 476.377 414.603C477.042 412.96 477.994 411.611 479.234 410.556C482.005 409.663 483.7 410.176 484.319 412.095C484.476 412.582 484.574 413.122 484.614 413.714C485.089 413.78 485.504 413.764 485.859 413.666L485.998 414.176C485.891 414.21 485.785 414.245 485.678 414.279C483.729 414.907 481.65 415.863 479.441 417.146C479.804 418.273 480.254 419.07 480.791 419.535C481.338 419.981 482.091 420.049 483.051 419.74ZM479.223 412.4C478.934 412.494 478.687 412.64 478.482 412.841C478.622 414.057 478.875 415.286 479.242 416.53C479.901 415.964 480.584 415.475 481.291 415.062C480.908 413.875 480.582 413.097 480.313 412.73C480.043 412.363 479.68 412.253 479.223 412.4Z" fill="#031221"/>
<path d="M355.262 469.283C371.642 482.493 374.284 479.059 384.06 479.059" stroke="#9B5B1E" stroke-width="5" stroke-linecap="round" stroke-linejoin="round"/>
<path d="M346.279 469.283C328.112 486.01 322.501 484.607 316.16 484.607" stroke="#9B5B1E" stroke-width="5" stroke-linecap="round" stroke-linejoin="round"/>
<path d="M122.383 405.19L133.519 427.701L110.29 418.154C109.429 417.8 108.444 417.954 107.731 418.553L106.289 419.765C104.485 414.764 103.606 408.242 103.325 401.62C103.104 396.42 103.256 391.316 103.553 387.112L106.657 390.72C107.409 391.594 108.662 391.841 109.689 391.316L132.243 379.805L122.324 403.103C122.038 403.774 122.06 404.537 122.383 405.19Z" fill="#D4843B" stroke="#D4843B" stroke-width="5" stroke-linejoin="round"/>
<path d="M467.977 515.427L479.849 497.797L486.709 517.339C488.929 523.66 495.736 527.108 502.145 525.157L521.258 519.337L508.7 535.494C503.859 541.723 505.928 550.824 512.986 554.349L533.532 564.606L518.44 570.219C514.536 571.671 511.611 574.972 510.641 579.023L505.636 599.918L490.06 581.692C485.071 575.853 476.045 575.853 471.055 581.692L456.692 598.5V581.945C456.692 576.375 453.007 571.477 447.655 569.934L426.899 563.951L440.875 553.715C445.827 550.087 447.413 543.401 444.616 537.936L434.31 517.795L455.87 520.823C460.606 521.488 465.306 519.393 467.977 515.427Z" fill="#D4843B" stroke="#D4843B" stroke-width="5"/>
<path d="M131.747 587.382C143.637 573.115 121.179 596.101 97.6652 554.356C96.8982 573.908 98.4136 619.403 110.611 644.978C120.299 636.7 138.088 619.72 131.747 618.029C123.821 615.916 119.858 601.649 131.747 587.382Z" fill="#D4843B" stroke="#D4843B" stroke-width="5" stroke-linecap="round" stroke-linejoin="round"/>
<path d="M266.296 327.489C250.458 361.49 255.076 389.842 247.859 389.49C250.52 389.62 237.324 358.823 247.852 318.489C261.555 292.489 238.915 274.171 228.369 272.155L255.234 268.488C261.049 271.499 284.929 287.489 266.296 327.489Z" fill="#D4843B" stroke="#D4843B" stroke-width="5" stroke-linecap="round" stroke-linejoin="round"/>
<path d="M562.973 590.217C567.769 607.086 587.688 614.621 597.047 616.28L592.479 633.22C579.731 633.964 563.728 603.141 562.973 590.217Z" fill="#D4843B" stroke="#D4843B" stroke-width="5" stroke-linecap="round" stroke-linejoin="round"/>
<path d="M418.722 768.958C417.475 770.685 416.235 772.141 415.007 773.354V968.909C420.58 974.185 436.661 983.153 456.405 976.823C476.148 970.492 452.778 953.785 438.625 946.223V768.234C438.38 768.539 438.129 768.836 437.874 769.123C432.468 775.207 424.932 777.149 418.722 768.958Z" fill="#FFAB48"/>
<path d="M277.544 832.267C268.486 847.572 261.978 854.262 257.375 855.721V946.222C243.222 953.784 219.852 970.49 239.595 976.821C259.339 983.152 275.421 974.183 280.994 968.908V842.362C280.893 842.261 280.794 842.154 280.697 842.04C280.685 842.026 280.673 842.011 280.661 841.997C279.221 840.278 278.141 837.147 277.544 832.267Z" fill="#FFAB48"/>
<path d="M247.291 698V832.267C246.949 843.827 249.032 858.367 257.375 855.721C261.978 854.262 268.486 847.572 277.544 832.267C278.141 837.147 279.221 840.278 280.661 841.997C280.673 842.011 280.685 842.026 280.697 842.04C280.794 842.154 280.893 842.261 280.994 842.362C288.95 850.389 306.868 819.074 316.288 799.03C320.003 809.229 330.618 823.509 343.356 799.03C360.332 801.193 376.175 786.537 388.967 767.639C393.054 774.791 403.479 784.744 415.007 773.354C416.235 772.141 417.475 770.685 418.722 768.958C424.932 777.149 432.468 775.207 437.874 769.123C438.129 768.836 438.38 768.539 438.625 768.234C442.422 763.514 444.994 756.734 444.994 750.23V705.122C374.428 721.477 305.431 718.048 247.291 698Z" fill="#57270C"/>
<path d="M247.291 832.267V698C305.431 718.048 374.428 721.477 444.994 705.122V750.23M247.291 832.267C246.76 850.204 252.068 875.317 277.544 832.267M247.291 832.267C246.949 843.827 249.032 858.367 257.375 855.721M277.544 832.267C268.486 847.572 261.978 854.262 257.375 855.721M277.544 832.267C278.141 837.147 279.221 840.278 280.661 841.997C280.673 842.011 280.685 842.026 280.697 842.04M316.288 799.03C320.003 809.229 330.618 823.509 343.356 799.03C360.332 801.193 376.175 786.537 388.967 767.639M316.288 799.03C306.749 819.327 288.496 851.181 280.697 842.04M316.288 799.03C306.868 819.074 288.95 850.389 280.994 842.362M388.967 767.639C401.13 749.67 408.437 726.692 413.438 711.864M388.967 767.639C393.489 775.553 405.772 786.896 418.722 768.958M388.967 767.639C393.054 774.791 403.479 784.744 415.007 773.354M418.722 768.958C417.475 770.685 416.235 772.141 415.007 773.354M418.722 768.958C424.932 777.149 432.468 775.207 437.874 769.123M444.994 750.23C444.994 756.734 442.422 763.514 438.625 768.234M444.994 750.23C444.994 757.154 442.078 764.391 437.874 769.123M257.375 855.721V946.222C243.222 953.784 219.852 970.49 239.595 976.821C259.339 983.152 275.421 974.183 280.994 968.908V842.362M280.994 842.362C280.893 842.261 280.794 842.154 280.697 842.04M438.625 768.234V946.223C452.778 953.785 476.148 970.492 456.405 976.823C436.661 983.153 420.58 974.185 415.007 968.909V773.354M438.625 768.234C438.38 768.539 438.129 768.836 437.874 769.123" stroke="#9B5B1E" stroke-width="5" stroke-linecap="round" stroke-linejoin="round"/>
<path d="M343.485 92.6177C267.509 95.0928 274.076 192.183 277.34 245.045C278.133 257.877 286.495 269.357 298.755 273.228C341.287 286.657 360.411 287.494 401.508 273.541C413.324 269.53 421.036 258.213 421.146 245.735C421.929 157.571 424.489 89.9788 343.485 92.6177Z" fill="#FFAB48" stroke="#9B5B1E" stroke-width="5" stroke-linecap="round" stroke-linejoin="round"/>
<circle cx="348.053" cy="155.158" r="30.5254" fill="white" stroke="#9B5B1E" stroke-width="5"/>
<path d="M327.18 132.702C334.049 148.253 352.015 170.025 368.924 132.702C351.169 116.438 333.697 125.925 327.18 132.702Z" fill="#8A5B24" stroke="#37240D" stroke-width="5" stroke-linecap="round" stroke-linejoin="round"/>
<path d="M348.586 178.673C340.341 178.673 340.671 164.054 341.093 153.31L348.586 155.423L355.509 153.31C356.522 160.267 357.525 178.673 348.586 178.673Z" fill="#031221" stroke="#031221" stroke-width="5" stroke-linecap="round" stroke-linejoin="round"/>
<path d="M321.896 196.639C321.896 217.511 340.655 205.093 340.919 203.508C341.183 201.923 346.996 216.718 355.979 203.508C365.067 212.597 374.737 210.113 374.737 196.639" stroke="#9B5B1E" stroke-width="5" stroke-linecap="round" stroke-linejoin="round"/>
<path d="M327.18 247.893H318.227C318.595 254.321 322.363 258.736 327.18 260.8V247.893Z" fill="#B7B7B7"/>
<path d="M327.18 247.893V260.8C330.218 262.101 333.673 262.468 336.956 261.816V247.893H327.18Z" fill="white"/>
<path d="M336.956 261.816C341.898 260.835 345.135 257.742 347.289 251.856V246.294H336.956V247.893V261.816Z" fill="#FFBE2F"/>
<path d="M357.622 247.893V261.614C360.926 262.882 364.616 262.966 367.955 261.911V247.893H357.622Z" fill="#B7B7B7"/>
<path d="M378.288 247.893H367.955V261.911C373.388 260.193 377.891 255.457 378.288 247.893Z" fill="white"/>
<path d="M347.289 251.856C348.841 256.978 353.603 260.073 357.622 261.614V247.893V246.294L347.289 246.294V251.856Z" fill="white"/>
<path d="M378.076 243.47C373.944 214.067 323.78 211.424 318.484 243.47C318.226 245.035 318.148 246.511 318.227 247.893H327.18H336.956V246.294H347.289L357.622 246.294V247.893H367.955H378.288C378.36 246.513 378.296 245.038 378.076 243.47Z" fill="#031221"/>
<path d="M347.289 251.856C345.135 257.742 341.898 260.835 336.956 261.816M347.289 251.856C348.841 256.978 353.603 260.073 357.622 261.614M347.289 251.856V246.294M318.227 247.893C318.148 246.511 318.226 245.035 318.484 243.47C323.78 211.424 373.944 214.067 378.076 243.47C378.296 245.038 378.36 246.513 378.288 247.893M318.227 247.893H327.18M318.227 247.893C318.595 254.321 322.363 258.736 327.18 260.8M378.288 247.893H367.955M378.288 247.893C377.891 255.457 373.388 260.193 367.955 261.911M327.18 247.893V260.8M327.18 247.893H336.956M327.18 260.8C330.218 262.101 333.673 262.468 336.956 261.816M336.956 247.893V261.816M336.956 247.893V246.294H347.289M357.622 247.893V261.614M357.622 247.893H367.955M357.622 247.893V246.294L347.289 246.294M357.622 261.614C360.926 262.882 364.616 262.966 367.955 261.911M367.955 247.893V261.911" stroke="#031221" stroke-width="5" stroke-linecap="round" stroke-linejoin="round"/>
<path d="M336.956 242.61C335.723 241.993 332.359 238.065 328.766 227.286L336.956 223.059V242.61Z" fill="#B7B7B7" stroke="#031221" stroke-linecap="round" stroke-linejoin="round"/>
<path d="M360.47 242.61C361.703 241.993 365.067 238.065 368.66 227.286L360.47 223.059V242.61Z" fill="#FFBE2F" stroke="#031221" stroke-linecap="round" stroke-linejoin="round"/>
<path d="M430.356 178.587C448.04 164.098 433.61 141.628 418.762 157.962L421.929 190.039C426.025 193.882 440.171 191.954 430.356 178.587Z" fill="#FFAB48" stroke="#9B5B1E" stroke-width="5" stroke-linecap="round" stroke-linejoin="round"/>
<path d="M266.685 180.455C248.93 166.054 263.249 143.515 278.177 159.774C277.174 169.413 275.168 189.324 275.168 191.864C271.091 195.727 256.936 193.869 266.685 180.455Z" fill="#FFAB48" stroke="#9B5B1E" stroke-width="5" stroke-linecap="round" stroke-linejoin="round"/>
<path d="M293.298 117.558C277.312 90.077 293.724 98.995 306.236 104.342L293.298 117.558Z" fill="#D9D9D9" stroke="#404040" stroke-width="5" stroke-linecap="round" stroke-linejoin="round"/>
<path d="M392.193 103.7C420.158 88.577 410.734 104.703 405 117.043L392.193 103.7Z" fill="#D9D9D9" stroke="#404040" stroke-width="5" stroke-linecap="round" stroke-linejoin="round"/>
<path d="M313.805 171.453C314.676 175.897 319.027 185.635 329.461 189.035" stroke="#D4843B" stroke-width="5" stroke-linecap="round" stroke-linejoin="round"/>
</g>
<defs>
<clipPath id="clip0_1459_8521">
<rect width="700" height="1024" fill="white" transform="matrix(-1 0 0 1 700 0)"/>
</clipPath>
</defs>
</svg>
