<svg width="3939" height="1024" viewBox="0 0 3939 1024" fill="none" xmlns="http://www.w3.org/2000/svg">
<g clip-path="url(#clip0_1282_8156)">
<rect width="3939" height="1024" transform="matrix(-1 0 0 1 3939 0)" fill="#372616"/>
<path d="M184 1311C164.564 369.656 31 367.011 31 1311H184Z" fill="#1A1A1A" stroke="#2A2A2A" stroke-width="5"/>
<path d="M217 -4C207.091 475.326 139 476.673 139 -4H217Z" fill="#1A1A1A" stroke="#2A2A2A" stroke-width="5"/>
<path d="M139 -63C129.345 404.343 63 405.656 63 -63H139Z" fill="#2A2A2A" stroke="#1A1A1A" stroke-width="5"/>
<path d="M467 721L662 1024H77L272 721H467Z" fill="#783A00" fill-opacity="0.3" stroke="#783A00" stroke-opacity="0.3"/>
<path d="M922.701 759.167C945.954 793.362 885.2 880.45 884.201 881.556C867.374 900.183 855.831 902.58 829.202 901.556C805.14 900.63 780.687 897.556 755.868 897.556C719.357 897.556 684.281 909.556 647.868 909.556C626.933 909.556 606.417 905.556 585.201 905.556C568.587 905.556 545.6 905.365 530.09 899.333C510.564 891.74 518.09 866.765 518.09 849.333C518.09 832.795 514.301 813.788 528.313 801.778C545.015 787.462 557.56 772.894 578.313 763.556C596.934 755.176 616.449 749.063 634.979 740.667C688.247 716.53 713.673 662 776.979 662C833.962 662 893.295 715.922 922.701 759.167Z" fill="#1A1A1A"/>
<path d="M884.201 881.556C884.406 881.508 883.995 881.603 884.201 881.556ZM884.201 881.556C885.2 880.45 945.954 793.362 922.701 759.167C893.295 715.922 833.962 662 776.979 662C713.673 662 688.247 716.53 634.979 740.667C616.449 749.063 596.934 755.176 578.313 763.556C557.56 772.894 545.015 787.462 528.313 801.778C514.301 813.788 518.09 832.795 518.09 849.333C518.09 866.765 510.564 891.74 530.09 899.333C545.6 905.365 568.587 905.556 585.201 905.556C606.417 905.556 626.933 909.556 647.868 909.556C684.281 909.556 719.357 897.556 755.868 897.556C780.687 897.556 805.14 900.63 829.202 901.556C855.831 902.58 867.374 900.183 884.201 881.556ZM883.077 764.632C869.016 772.2 854.939 779.728 841.218 787.904C830.646 794.203 820.663 800.411 813.162 810.329C804.659 821.571 798.754 834.608 792.481 847.155M835.537 754.765C821.608 768.173 805.94 781.371 794.275 796.923M847.198 807.688C822.807 789.019 798.63 769.955 773.645 752.075C769.083 748.81 768.412 748.392 764.675 746.693" stroke="#2A2A2A" stroke-width="5" stroke-linecap="round"/>
<path d="M1088.7 742.035C1114.24 742.035 1226.33 793.058 1063.17 1027.96C1046.4 1042.32 991.095 1056.92 904.034 1000.46C834.475 1012.47 737.75 1065.04 673.168 1027.96C599.877 985.886 587.938 942.483 635.03 852.033C670.514 783.879 737.173 801.339 796.866 767.545C877.121 732.093 889.949 711.062 1003.8 742.035C1074.44 761.251 1063.17 742.035 1088.7 742.035Z" fill="#2A2A2A"/>
<path d="M1003.8 1000.46C981.478 990.122 945.968 993.23 904.034 1000.46M904.034 1000.46C834.475 1012.47 737.75 1065.04 673.168 1027.96C599.877 985.886 587.938 942.483 635.03 852.033C670.514 783.879 737.173 801.339 796.866 767.545C877.121 732.093 889.949 711.062 1003.8 742.035C1074.44 761.251 1063.17 742.035 1088.7 742.035C1114.24 742.035 1226.33 793.058 1063.17 1027.96C1046.4 1042.32 991.095 1056.92 904.034 1000.46ZM904.034 804.321L796.866 818.237M873.473 825.526L796.866 836.791M859.545 784.442L824.06 871.911" stroke="#1E1E1E" stroke-width="5"/>
<path d="M41.9198 1456.41C356.712 569.051 232.719 519.332 -101.189 1402.29L41.9198 1456.41Z" fill="#2A2A2A" stroke="#1A1A1A" stroke-width="5"/>
<path d="M585.522 703.929C572.311 682.264 567.556 702.344 569.141 711.327C572.1 729.081 581.294 721.895 585.522 716.083L595.532 713.802L654.185 705.348L685.39 703.929C789.193 696.949 865.368 706.321 852.602 659.961C842.563 623.501 779.682 645.694 680.106 678.566L655.506 686.325L591.833 701.913L585.522 703.929Z" fill="#57270C" stroke="#031221" stroke-width="5" stroke-linecap="round" stroke-linejoin="round"/>
<path d="M779.772 646.941C780.232 648.979 778.952 651.005 776.913 651.464C774.874 651.924 772.849 650.644 772.389 648.605C772.274 648.092 772.31 647.771 772.373 647.571C772.434 647.378 772.552 647.193 772.782 647C773.307 646.56 774.25 646.202 775.655 645.885C777.061 645.569 778.066 645.487 778.729 645.66C779.02 645.736 779.206 645.851 779.344 645.999C779.487 646.153 779.657 646.428 779.772 646.941Z" fill="#B7B7B7" stroke="#031221" stroke-width="3"/>
<path d="M797.205 698.215C797.205 699.223 796.817 699.91 796.225 700.379C795.595 700.879 794.628 701.206 793.421 701.206C792.213 701.206 791.247 700.879 790.616 700.379C790.025 699.91 789.637 699.223 789.637 698.215C789.637 696.125 791.331 694.431 793.421 694.431C795.511 694.431 797.205 696.125 797.205 698.215Z" fill="#B7B7B7" stroke="#031221" stroke-width="3"/>
<circle cx="787.08" cy="681.834" r="3.78407" fill="#D9D9D9" stroke="#031221" stroke-width="3"/>
<circle cx="781.796" cy="663.34" r="3.78407" fill="#D9D9D9" stroke="#031221" stroke-width="3"/>
<path d="M334.763 271.789C285.797 277.425 185.118 294.933 174.127 319.874C163.137 344.815 157.747 385.837 158.803 403.098C158.451 405.916 164.827 461.593 174.127 487.379C131.855 578.794 168.139 654.708 174.127 669.151C140.045 687.91 163.295 714.858 172.542 719.614C180.997 723.962 205.928 722.785 209.002 719.614C221.684 712.745 223.533 690.111 221.155 681.833C220.979 680.688 221.367 678.24 213.758 669.151C216.224 665.1 221.155 653.363 221.155 633.072C255.261 705.595 350.358 721.834 411.264 721.834C475.186 721.834 557.073 713.504 586.523 640.617C588.214 654.567 595.179 665.189 598.438 669.152C590.829 678.241 591.216 680.689 591.04 681.834C588.662 690.112 590.512 712.746 603.194 719.615C606.268 722.786 631.199 723.963 639.654 719.615C648.901 714.859 672.15 687.911 638.068 669.152C644.057 654.709 680.341 578.794 638.068 487.38C647.368 461.593 653.744 405.917 653.392 403.099C654.449 385.837 649.059 344.815 638.068 319.874C627.077 294.933 526.398 277.425 477.433 271.789H334.763Z" fill="#FFAB48"/>
<path d="M221.155 681.833C223.533 690.111 221.684 712.745 209.002 719.614C205.928 722.785 180.997 723.962 172.542 719.614C163.295 714.858 140.045 687.91 174.127 669.151C168.139 654.708 131.855 578.794 174.127 487.379C164.827 461.593 158.451 405.916 158.803 403.098C157.747 385.837 163.137 344.815 174.127 319.874C185.118 294.933 285.797 277.425 334.763 271.789H477.433C526.398 277.425 627.077 294.933 638.068 319.874C649.059 344.815 654.449 385.837 653.392 403.099C653.744 405.917 647.368 461.593 638.068 487.38C680.341 578.794 644.057 654.709 638.068 669.152C672.15 687.911 648.901 714.859 639.654 719.615C631.199 723.963 606.268 722.786 603.194 719.615C590.512 712.746 588.662 690.112 591.04 681.834C591.216 680.689 590.829 678.241 598.438 669.152C595.179 665.189 588.214 654.567 586.523 640.617C557.073 713.504 475.186 721.834 411.264 721.834M221.155 681.833C224.749 700.222 210.235 702.001 203.19 700.856C193.854 697.421 178.143 687.381 189.98 674.699M221.155 681.833C220.979 680.688 221.367 678.24 213.758 669.151C216.224 665.1 221.155 653.363 221.155 633.072C255.261 705.595 350.358 721.834 411.264 721.834M264.786 341.539C242.226 370.1 203.872 435.439 230.945 468.304C146.931 684.274 318.638 721.834 411.264 721.834M411.264 721.834C508.08 721.834 646.107 702.726 580.736 469.149M546.654 341.539C569.307 370.112 607.818 435.478 580.634 468.357" stroke="#9B5B1E" stroke-width="5" stroke-linecap="round" stroke-linejoin="round"/>
<path d="M231.195 468.885C236.479 473.64 252.437 482.729 273.996 481.038" stroke="#9B5B1E" stroke-width="5" stroke-linecap="round" stroke-linejoin="round"/>
<path d="M581.001 468.356C575.391 474.252 558.448 485.52 535.558 483.424" stroke="#9B5B1E" stroke-width="5" stroke-linecap="round" stroke-linejoin="round"/>
<path d="M403.908 624.765C388.584 624.765 376.379 634.694 374.58 645.52" stroke="#9B5B1E" stroke-width="5" stroke-linecap="round" stroke-linejoin="round"/>
<path d="M414.564 677.187C418.912 675.919 428.218 670.709 430.665 660.01" stroke="#9B5B1E" stroke-width="5" stroke-linecap="round" stroke-linejoin="round"/>
<path d="M389.112 664.924L416.589 641.674" stroke="#9B5B1E" stroke-width="5" stroke-linecap="round" stroke-linejoin="round"/>
<path d="M387.604 641.674L415.081 664.924" stroke="#9B5B1E" stroke-width="5" stroke-linecap="round" stroke-linejoin="round"/>
<path d="M569.59 463.25L550.353 469.823" stroke="#9B5B1E" stroke-width="5" stroke-linecap="round" stroke-linejoin="round"/>
<path d="M235.423 460.43L253.389 469.941" stroke="#9B5B1E" stroke-width="5" stroke-linecap="round" stroke-linejoin="round"/>
<path d="M533.005 456.506C543.433 444.877 564.268 415.104 556.016 399.722C554.307 396.536 551.924 394.047 549.178 392.29C537.483 384.81 519.183 390.616 518.135 412.531C498.38 391.429 476.325 408.129 479.864 425.471C482.06 436.231 490.653 443.524 502.115 448.494C511.196 452.433 522.078 454.913 533.005 456.506Z" fill="#FE4725"/>
<path d="M502.115 448.494C511.196 452.433 522.078 454.913 533.005 456.506C543.433 444.877 564.268 415.104 556.016 399.722C554.307 396.536 551.924 394.047 549.178 392.29M502.115 448.494C490.653 443.524 482.06 436.231 479.864 425.471C476.325 408.129 498.38 391.429 518.135 412.531C519.183 390.616 537.483 384.81 549.178 392.29M502.115 448.494L491.921 460.694M491.921 460.694L490.186 473.273M491.921 460.694L479.864 461.778M549.178 392.29L559.154 378.496M559.154 378.496L559.154 389.774M559.154 378.496L549.178 381.315" stroke="#9D2C17" stroke-width="5" stroke-linecap="round" stroke-linejoin="round"/>
<path d="M508.209 437.442C507.846 436.315 507.118 434.919 506.027 433.253C504.936 431.588 503.87 430.133 502.83 428.888L502.654 428.969L503.337 432.027C503.73 433.767 504.237 435.603 504.861 437.538C505.234 438.695 505.794 439.338 506.542 439.467L506.591 439.855C505.85 440.009 505.077 440.216 504.27 440.476C503.462 440.737 502.675 441.058 501.907 441.439L501.617 440.852C501.857 440.607 502.24 440.332 502.764 440.029L500.687 426.149C500.134 426.209 499.661 426.202 499.267 426.127L499.16 425.481C500.103 425.328 501.214 425.046 502.493 424.634C503.772 424.222 504.836 423.82 505.685 423.429L505.879 423.795C505.405 424.099 505.23 424.441 505.352 424.822C505.446 425.111 505.957 426.047 506.888 427.63C507.833 429.208 508.642 430.57 509.314 431.715L509.657 432.311L509.863 432.168C509.634 431.301 509.432 428.432 509.259 423.563C509.136 423.182 508.857 422.995 508.422 423.001L508.365 422.59C509.171 422.431 510.237 422.138 511.562 421.712C512.887 421.285 513.925 420.883 514.678 420.506L514.976 421.04C514.726 421.306 514.412 421.558 514.035 421.797C514.081 422.253 514.261 422.968 514.575 423.943C514.884 424.902 515.595 426.665 516.708 429.231C517.816 431.783 518.688 433.628 519.324 434.768C520.029 434.659 520.603 434.616 521.049 434.641L521.171 435.257C520.153 435.434 518.996 435.731 517.701 436.148C516.407 436.565 515.333 436.987 514.478 437.414L514.188 436.826C514.419 436.55 514.722 436.293 515.099 436.054C513.935 432.546 512.604 429.276 511.106 426.246L510.939 426.274C510.939 429.351 510.994 431.451 511.104 432.576C511.214 433.7 511.397 434.658 511.652 435.45C510.489 436.329 509.531 437.268 508.777 438.267L508.429 438.203C508.39 438.031 508.317 437.777 508.209 437.442ZM520.301 430.469C519.811 428.946 519.89 427.366 520.539 425.728C521.187 424.09 522.183 422.693 523.525 421.538C524.82 421.121 526.201 420.919 527.668 420.934C527.886 420.41 527.99 419.847 527.981 419.245L528.535 419.243C528.661 420.833 529.295 423.402 530.439 426.95C530.944 428.519 531.402 429.733 531.814 430.592C532.233 430.642 532.692 430.603 533.189 430.477L533.351 430.979C531.706 431.509 530.072 432.204 528.45 433.063L528.238 432.955C528.125 431.613 527.86 430.294 527.443 429L527.207 429.051C527.129 430.74 526.622 432.374 525.686 433.954C524.543 434.322 523.462 434.149 522.442 433.435C521.417 432.707 520.704 431.718 520.301 430.469ZM523.595 428.248C524.267 430.334 524.931 431.272 525.585 431.061C525.844 430.977 526.086 430.631 526.309 430.021C526.548 429.406 526.691 428.57 526.737 427.513C526.113 425.579 525.666 424.294 525.394 423.659C524.841 423.299 524.237 423.225 523.582 423.436C523.232 423.549 522.932 423.687 522.682 423.852C522.766 425.153 523.07 426.618 523.595 428.248ZM525.38 416.729C526.278 416.44 526.838 415.932 527.057 415.205L527.731 415.417C527.089 417.338 526.372 418.713 525.579 419.539C525.168 419.672 524.381 419.707 523.218 419.645C522.055 419.583 521.252 419.623 520.811 419.765C519.943 420.045 519.414 420.543 519.225 421.259L518.551 421.048C519.157 419.172 520.113 417.729 521.418 416.72C522.871 417.109 524.192 417.112 525.38 416.729ZM539.698 426.74C540.277 426.554 540.799 426.217 541.264 425.731C541.724 425.23 542.079 424.662 542.329 424.027L542.706 424.182C542.307 426.177 541.27 427.94 539.595 429.472C537.98 429.992 536.551 429.965 535.307 429.391C534.078 428.812 533.226 427.784 532.75 426.306C532.269 424.814 532.361 423.246 533.025 421.603C533.689 419.96 534.641 418.611 535.881 417.556C538.653 416.663 540.348 417.176 540.966 419.095C541.123 419.582 541.222 420.122 541.261 420.714C541.736 420.78 542.151 420.764 542.506 420.666L542.645 421.176C542.539 421.21 542.432 421.245 542.326 421.279C540.376 421.907 538.297 422.863 536.088 424.146C536.452 425.273 536.902 426.07 537.438 426.535C537.985 426.981 538.739 427.049 539.698 426.74ZM535.87 419.4C535.581 419.494 535.334 419.64 535.13 419.841C535.269 421.057 535.523 422.286 535.89 423.53C536.548 422.964 537.231 422.475 537.938 422.062C537.556 420.875 537.23 420.097 536.96 419.73C536.69 419.363 536.327 419.253 535.87 419.4Z" fill="#031221"/>
<path d="M411.91 476.283C428.291 489.493 430.933 486.059 440.708 486.059" stroke="#9B5B1E" stroke-width="5" stroke-linecap="round" stroke-linejoin="round"/>
<path d="M402.928 476.283C384.761 493.01 379.149 491.607 372.809 491.607" stroke="#9B5B1E" stroke-width="5" stroke-linecap="round" stroke-linejoin="round"/>
<path d="M178.972 410.103C178.686 410.774 178.708 411.537 179.032 412.19L190.167 434.701L166.939 425.154C166.078 424.8 165.092 424.954 164.38 425.553L162.938 426.765C161.134 421.764 160.255 415.242 159.974 408.62C159.753 403.42 159.905 398.316 160.202 394.112L163.306 397.72C164.058 398.594 165.31 398.841 166.338 398.316L188.891 386.805L178.972 410.103Z" fill="#D4843B" stroke="#D4843B" stroke-width="5" stroke-linejoin="round"/>
<path d="M524.625 522.427L536.496 504.797L543.357 524.339C545.576 530.66 552.384 534.108 558.792 532.157L577.906 526.337L565.348 542.494C560.506 548.723 562.575 557.824 569.634 561.349L590.179 571.606L575.087 577.219C571.183 578.671 568.259 581.972 567.288 586.023L562.283 606.918L546.708 588.692C541.718 582.853 532.692 582.853 527.702 588.692L513.339 605.5V588.945C513.339 583.375 509.654 578.477 504.302 576.934L483.547 570.951L497.522 560.715C502.474 557.087 504.06 550.401 501.264 544.936L490.957 524.795L512.518 527.823C517.254 528.488 521.954 526.393 524.625 522.427Z" fill="#D4843B" stroke="#D4843B" stroke-width="5"/>
<path d="M188.395 594.382C200.284 580.115 177.827 603.101 154.313 561.356C153.546 580.908 155.061 626.403 167.259 651.978C176.946 643.7 194.736 626.72 188.395 625.029C180.469 622.916 176.506 608.649 188.395 594.382Z" fill="#D4843B" stroke="#D4843B" stroke-width="5" stroke-linecap="round" stroke-linejoin="round"/>
<path d="M322.943 334.489C307.105 368.49 311.724 396.842 304.507 396.49C307.168 396.62 293.972 365.823 304.499 325.489C318.202 299.489 295.563 281.171 285.017 279.155L311.881 275.488C317.697 278.499 341.577 294.489 322.943 334.489Z" fill="#D4843B" stroke="#D4843B" stroke-width="5" stroke-linecap="round" stroke-linejoin="round"/>
<path d="M619.621 597.217C624.417 614.086 644.336 621.621 653.696 623.28L649.128 640.22C636.38 640.964 620.376 610.141 619.621 597.217Z" fill="#D4843B" stroke="#D4843B" stroke-width="5" stroke-linecap="round" stroke-linejoin="round"/>
<path d="M475.37 775.958C474.123 777.685 472.882 779.141 471.654 780.354V975.909C477.227 981.185 493.309 990.153 513.052 983.823C532.796 977.492 509.425 960.785 495.272 953.223V775.234C495.027 775.539 494.777 775.836 494.521 776.123C489.116 782.207 481.579 784.149 475.37 775.958Z" fill="#FFAB48"/>
<path d="M334.191 839.267C325.134 854.572 318.626 861.262 314.023 862.721V953.222C299.87 960.784 276.499 977.49 296.243 983.821C315.987 990.152 332.068 981.183 337.641 975.908V849.362C337.541 849.261 337.442 849.154 337.344 849.04C337.333 849.026 337.321 849.011 337.309 848.997C335.868 847.278 334.788 844.147 334.191 839.267Z" fill="#FFAB48"/>
<path d="M303.939 705V839.267C303.597 850.827 305.679 865.367 314.023 862.721C318.626 861.262 325.134 854.572 334.191 839.267C334.788 844.147 335.868 847.278 337.309 848.997C337.321 849.011 337.333 849.026 337.344 849.04C337.442 849.154 337.541 849.261 337.641 849.362C345.598 857.389 363.516 826.074 372.936 806.03C376.651 816.229 387.266 830.509 400.004 806.03C416.98 808.193 432.822 793.537 445.614 774.639C449.701 781.791 460.126 791.744 471.654 780.354C472.882 779.141 474.123 777.685 475.37 775.958C481.579 784.149 489.116 782.207 494.521 776.123C494.777 775.836 495.027 775.539 495.272 775.234C499.069 770.514 501.641 763.734 501.641 757.229V712.122C431.076 728.477 362.079 725.048 303.939 705Z" fill="#57270C"/>
<path d="M303.939 839.267V705C362.079 725.048 431.076 728.477 501.641 712.122V757.23M303.939 839.267C303.408 857.204 308.715 882.317 334.191 839.267M303.939 839.267C303.597 850.827 305.679 865.367 314.023 862.721M334.191 839.267C325.134 854.572 318.626 861.262 314.023 862.721M334.191 839.267C334.788 844.147 335.868 847.278 337.309 848.997C337.321 849.011 337.333 849.026 337.344 849.04M372.936 806.03C376.651 816.229 387.266 830.509 400.004 806.03C416.98 808.193 432.822 793.537 445.614 774.639M372.936 806.03C363.397 826.327 345.144 858.181 337.344 849.04M372.936 806.03C363.516 826.074 345.598 857.389 337.641 849.362M445.614 774.639C457.778 756.67 465.084 733.692 470.085 718.864M445.614 774.639C450.137 782.553 462.419 793.896 475.37 775.958M445.614 774.639C449.701 781.791 460.126 791.744 471.654 780.354M475.37 775.958C474.123 777.685 472.882 779.141 471.654 780.354M475.37 775.958C481.579 784.149 489.116 782.207 494.521 776.123M501.641 757.23C501.641 763.734 499.069 770.514 495.272 775.234M501.641 757.23C501.641 764.154 498.726 771.391 494.521 776.123M314.023 862.721V953.222C299.87 960.784 276.499 977.49 296.243 983.821C315.987 990.152 332.068 981.183 337.641 975.908V849.362M337.641 849.362C337.541 849.261 337.442 849.154 337.344 849.04M495.272 775.234V953.223C509.425 960.785 532.796 977.492 513.052 983.823C493.309 990.153 477.227 981.185 471.654 975.909V780.354M495.272 775.234C495.027 775.539 494.777 775.836 494.521 776.123" stroke="#9B5B1E" stroke-width="5" stroke-linecap="round" stroke-linejoin="round"/>
<path d="M400.134 99.6177C324.158 102.093 330.724 199.183 333.989 252.045C334.781 264.877 343.143 276.357 355.403 280.228C397.936 293.657 417.06 294.494 458.157 280.541C469.972 276.53 477.684 265.213 477.795 252.735C478.577 164.571 481.138 96.9788 400.134 99.6177Z" fill="#FFAB48" stroke="#9B5B1E" stroke-width="5" stroke-linecap="round" stroke-linejoin="round"/>
<circle cx="404.7" cy="162.158" r="30.5254" fill="white" stroke="#9B5B1E" stroke-width="5"/>
<path d="M383.828 139.702C390.697 155.253 408.663 177.025 425.572 139.702C407.818 123.438 390.345 132.925 383.828 139.702Z" fill="#8A5B24" stroke="#37240D" stroke-width="5" stroke-linecap="round" stroke-linejoin="round"/>
<path d="M405.235 185.673C396.99 185.673 397.32 171.054 397.741 160.31L405.235 162.423L412.158 160.31C413.17 167.267 414.174 185.673 405.235 185.673Z" fill="#031221" stroke="#031221" stroke-width="5" stroke-linecap="round" stroke-linejoin="round"/>
<path d="M378.544 203.639C378.544 224.511 397.302 212.093 397.567 210.508C397.831 208.923 403.643 223.718 412.626 210.508C421.715 219.597 431.385 217.113 431.385 203.639" stroke="#9B5B1E" stroke-width="5" stroke-linecap="round" stroke-linejoin="round"/>
<path d="M383.828 254.893H374.874C375.242 261.321 379.01 265.736 383.828 267.8V254.893Z" fill="#B7B7B7"/>
<path d="M383.828 254.893V267.8C386.865 269.101 390.32 269.468 393.603 268.816V254.893H383.828Z" fill="white"/>
<path d="M393.603 268.816C398.545 267.835 401.783 264.742 403.936 258.856V253.294H393.603V254.893V268.816Z" fill="#FFBE2F"/>
<path d="M414.269 254.893V268.614C417.574 269.882 421.264 269.966 424.602 268.911V254.893H414.269Z" fill="#B7B7B7"/>
<path d="M434.935 254.893H424.602V268.911C430.035 267.193 434.538 262.457 434.935 254.893Z" fill="white"/>
<path d="M403.936 258.856C405.488 263.978 410.251 267.073 414.269 268.614V254.893V253.294L403.936 253.294V258.856Z" fill="white"/>
<path d="M434.723 250.47C430.592 221.067 380.427 218.424 375.132 250.47C374.873 252.035 374.795 253.511 374.874 254.893H383.828H393.603V253.294H403.936L414.269 253.294V254.893H424.602H434.935C435.008 253.513 434.944 252.038 434.723 250.47Z" fill="#031221"/>
<path d="M403.936 258.856C401.783 264.742 398.545 267.835 393.603 268.816M403.936 258.856C405.488 263.978 410.251 267.073 414.269 268.614M403.936 258.856V253.294M374.874 254.893C374.795 253.511 374.873 252.035 375.132 250.47C380.427 218.424 430.592 221.067 434.723 250.47C434.944 252.038 435.008 253.513 434.935 254.893M374.874 254.893H383.828M374.874 254.893C375.242 261.321 379.01 265.736 383.828 267.8M434.935 254.893H424.602M434.935 254.893C434.538 262.457 430.035 267.193 424.602 268.911M383.828 254.893V267.8M383.828 254.893H393.603M383.828 267.8C386.865 269.101 390.32 269.468 393.603 268.816M393.603 254.893V268.816M393.603 254.893V253.294H403.936M414.269 254.893V268.614M414.269 254.893H424.602M414.269 254.893V253.294L403.936 253.294M414.269 268.614C417.574 269.882 421.264 269.966 424.602 268.911M424.602 254.893V268.911" stroke="#031221" stroke-width="5" stroke-linecap="round" stroke-linejoin="round"/>
<path d="M393.603 249.61C392.37 248.993 389.006 245.065 385.413 234.286L393.603 230.059V249.61Z" fill="#B7B7B7" stroke="#031221" stroke-linecap="round" stroke-linejoin="round"/>
<path d="M417.117 249.61C418.35 248.993 421.714 245.065 425.308 234.286L417.117 230.059V249.61Z" fill="#FFBE2F" stroke="#031221" stroke-linecap="round" stroke-linejoin="round"/>
<path d="M487.002 185.587C504.687 171.098 490.256 148.628 475.408 164.962L478.575 197.039C482.671 200.882 496.817 198.954 487.002 185.587Z" fill="#FFAB48" stroke="#9B5B1E" stroke-width="5" stroke-linecap="round" stroke-linejoin="round"/>
<path d="M323.334 187.455C305.578 173.054 319.898 150.515 334.825 166.774C333.823 176.413 331.817 196.324 331.817 198.864C327.74 202.727 313.584 200.869 323.334 187.455Z" fill="#FFAB48" stroke="#9B5B1E" stroke-width="5" stroke-linecap="round" stroke-linejoin="round"/>
<path d="M349.946 124.558C333.96 97.077 350.371 105.995 362.883 111.342L349.946 124.558Z" fill="#D9D9D9" stroke="#404040" stroke-width="5" stroke-linecap="round" stroke-linejoin="round"/>
<path d="M448.841 110.7C476.806 95.577 467.381 111.703 461.647 124.043L448.841 110.7Z" fill="#D9D9D9" stroke="#404040" stroke-width="5" stroke-linecap="round" stroke-linejoin="round"/>
<path d="M370.451 178.453C371.322 182.897 375.673 192.635 386.108 196.035" stroke="#D4843B" stroke-width="5" stroke-linecap="round" stroke-linejoin="round"/>
</g>
<defs>
<clipPath id="clip0_1282_8156">
<rect width="3939" height="1024" fill="white" transform="matrix(-1 0 0 1 3939 0)"/>
</clipPath>
</defs>
</svg>
