<svg width="361" height="688" viewBox="0 0 361 688" fill="none" xmlns="http://www.w3.org/2000/svg">
<path d="M296.872 136.629C292.277 135.63 288.482 135.748 285.362 136.629C274.871 139.591 272.017 151.183 272.087 157.971C272.178 166.777 272.087 172.133 272.087 183.572C285.432 195.283 294.058 186.107 296.872 181.023C305.225 168.04 316.918 140.986 296.872 136.629Z" fill="#E9C7A9"/>
<path d="M72.3521 136.629C76.9472 135.63 80.7479 135.748 83.8759 136.629C94.3931 139.591 97.3049 151.183 97.2349 157.971C97.1441 166.775 97.2349 172.131 97.2349 183.564C97.2349 183.566 97.2349 183.569 97.2349 183.572C83.8894 195.283 75.1664 186.107 72.3521 181.023C63.9998 168.04 52.3067 140.986 72.3521 136.629Z" fill="#E9C7A9"/>
<path d="M97.2349 157.971V183.564V183.572C97.2349 227.209 128.811 263.426 170.226 270.349C174.922 271.134 179.744 271.543 184.661 271.543C189.578 271.543 194.4 271.134 199.096 270.349C240.511 263.426 272.087 227.209 272.087 183.572V157.971C272.017 151.183 274.871 139.591 285.362 136.629C285.362 19.8868 86.8854 19.8868 83.8759 136.629C94.3931 139.591 97.3049 151.183 97.2349 157.971Z" fill="#E9C7A9"/>
<path d="M184.661 271.543C179.744 271.543 174.922 271.134 170.226 270.349V292.242L83.8759 310.217L3 420.793L83.8759 497.87C83.8759 524.288 91.7878 531.37 115.755 531.37L107.785 476.082L48.7557 420.793L91.8457 365.505L99.8155 420.793L107.785 476.082L115.755 531.37H254.656L262.332 476.082L270.009 420.793L277.685 365.505L316.208 420.793L262.332 476.082L254.656 531.37C277.685 531.37 285.362 524.288 285.362 497.87L358.423 420.793L285.362 310.217L199.096 292.242V270.349C194.4 271.134 189.578 271.543 184.661 271.543Z" fill="#E9C7A9"/>
<path d="M254.656 531.37H115.755V806.721C115.755 806.721 72.64 825.292 72.3521 848.936C71.9456 882.313 157.827 848.936 157.827 848.936V574.402H211.997L222.246 848.936C222.246 848.936 293.224 877.85 296.872 848.936C299.539 827.802 254.656 806.721 254.656 806.721V531.37Z" fill="#E9C7A9"/>
<path d="M272.087 183.572V157.971M272.087 183.572C285.432 195.283 294.058 186.107 296.872 181.023C305.225 168.04 316.918 140.986 296.872 136.629C292.277 135.63 288.482 135.748 285.362 136.629M272.087 183.572C272.087 172.133 272.178 166.777 272.087 157.971M272.087 183.572C272.087 227.209 240.511 263.426 199.096 270.349M97.2349 183.572C83.8894 195.283 75.1664 186.107 72.3521 181.023C63.9998 168.04 52.3067 140.986 72.3521 136.629C76.9472 135.63 80.7479 135.748 83.8759 136.629M97.2349 183.572C97.2349 227.209 128.811 263.426 170.226 270.349M97.2349 183.572V183.564M97.2349 183.572C97.2349 183.569 97.2349 183.566 97.2349 183.564M97.2349 157.971C97.3049 151.183 94.3931 139.591 83.8759 136.629M97.2349 157.971V183.564M97.2349 157.971C97.1441 166.775 97.2349 172.131 97.2349 183.564M272.087 157.971C272.017 151.183 274.871 139.591 285.362 136.629M83.8759 136.629C86.8854 19.8868 285.362 19.8868 285.362 136.629M170.226 270.349C174.922 271.134 179.744 271.543 184.661 271.543C189.578 271.543 194.4 271.134 199.096 270.349M170.226 270.349V292.242L83.8759 310.217L3 420.793L83.8759 497.87C83.8759 524.288 91.7878 531.37 115.755 531.37M115.755 531.37H254.656M115.755 531.37L107.785 476.082M115.755 531.37V806.721C115.755 806.721 72.64 825.292 72.3521 848.936C71.9456 882.313 157.827 848.936 157.827 848.936V574.402H211.997L222.246 848.936C222.246 848.936 293.224 877.85 296.872 848.936C299.539 827.802 254.656 806.721 254.656 806.721V531.37M199.096 270.349V292.242L285.362 310.217L358.423 420.793L285.362 497.87C285.362 524.288 277.685 531.37 254.656 531.37M254.656 531.37L262.332 476.082M107.785 476.082L99.8155 420.793L91.8457 365.505L48.7557 420.793L107.785 476.082ZM262.332 476.082L316.208 420.793L277.685 365.505L270.009 420.793L262.332 476.082ZM118.206 393.83L137.271 402.273M184.661 352.705V384.026M211.997 314.03H270.009M99.8155 314.03H157.827" stroke="#BE722C" stroke-width="5" stroke-linecap="round" stroke-linejoin="round"/>
<path d="M75.3942 71.2613C36.4578 89.7661 54.5894 121.253 68.6376 135.092C81.4121 131.31 88.9729 138.729 94.239 134.517L87.086 119.023L96.6903 123.675V112.487L106.767 116.535L107.312 104.044L118.479 109.017V98.869L130.19 102.426L132.096 91.5154L142.446 96.623L145.714 84.4342L156.39 91.5154L162.873 78.17L173.222 87.6635L181.12 75.9912L189.291 86.5267L198.279 75.9912L203.332 87.6635L216.526 78.17L219.613 91.5154L232.822 84.4342V96.623L244.239 91.5154V102.426L254.992 98.869V109.017L265.603 104.044V116.535L276.989 112.487L274.627 123.675L283.798 119.296L274.627 134.517C279.27 138.732 291.969 132.066 299.322 134.517C334.126 105.099 313.127 80.5532 298.626 71.2613L302.161 55.2476L288.565 56.1373C282.91 14.8575 251.587 22.7259 236.632 31.8201L231.194 20.8478L217.871 26.1857C188.505 -15.8058 158.868 8.68922 147.72 26.1857L136.3 17.2892L128.143 31.8201C95.2974 15.4506 87.086 41.2109 87.086 56.1373L72.9471 55.2476L75.3942 71.2613Z" fill="#783A00" stroke="#462507" stroke-width="5"/>
<path d="M123.381 211.893C122.292 189.451 105.497 184.567 97.2351 184.93C97.2351 244.031 149.8 271.812 183.844 271.812C228.238 271.812 272.359 235.588 272.359 184.93C261.193 184.022 240.657 192.938 238.043 211.893C222.355 207.1 214.711 213.164 212.986 219.792C206.177 211.893 192.287 209.987 183.844 223.332C173.386 209.606 157.426 214.072 152.251 219.792C150.163 213.437 141.466 202.96 123.381 211.893Z" fill="#783A00" stroke="#462507" stroke-width="5"/>
<path d="M169.137 205.988V202.549C169.137 200.34 170.928 198.549 173.137 198.549H195.641C197.85 198.549 199.641 200.34 199.641 202.549V205.988C199.641 208.197 197.85 209.988 195.641 209.988H173.137C170.928 209.988 169.137 208.197 169.137 205.988Z" fill="#FF937E" stroke="#99584C" stroke-width="5"/>
<path d="M133.671 190.142C158.696 193.159 164.438 175.535 165.204 163.448C165.332 161.443 163.806 159.758 161.811 159.518L137.917 156.638L133.671 190.142Z" fill="black"/>
<path d="M114.507 153.817C112.314 153.552 110.303 155.108 110.095 157.307C108.998 168.899 109.501 187.23 133.671 190.142L137.917 156.638L114.507 153.817Z" fill="black"/>
<path d="M114.507 153.817C112.314 153.552 110.303 155.108 110.095 157.307C108.998 168.899 109.501 187.23 133.671 190.142L137.917 156.638L114.507 153.817Z" fill="white"/>
<path d="M133.671 190.142C158.696 193.159 164.438 175.535 165.204 163.448C165.332 161.443 163.806 159.758 161.811 159.518L137.917 156.638M133.671 190.142C109.501 187.23 108.998 168.899 110.095 157.307C110.303 155.108 112.314 153.552 114.507 153.817L137.917 156.638M133.671 190.142C135.329 177.058 136.259 169.722 137.917 156.638M133.671 190.142L137.917 156.638" stroke="black" stroke-width="5"/>
<path d="M256.277 153.817C258.47 153.552 260.481 155.108 260.689 157.307C261.786 168.899 261.283 187.23 237.114 190.142L232.867 156.638L256.277 153.817Z" fill="black"/>
<path d="M237.114 190.142C212.089 193.159 206.346 175.535 205.58 163.448C205.453 161.443 206.978 159.758 208.973 159.518L232.867 156.638L237.114 190.142Z" fill="black"/>
<path d="M237.114 190.142C212.089 193.159 206.346 175.535 205.58 163.448C205.453 161.443 206.978 159.758 208.973 159.518L232.867 156.638L237.114 190.142Z" fill="white"/>
<path d="M237.114 190.142C212.089 193.159 206.346 175.535 205.58 163.448C205.453 161.443 206.978 159.758 208.973 159.518L232.867 156.638M237.114 190.142C261.283 187.23 261.786 168.899 260.689 157.307C260.481 155.108 258.47 153.552 256.277 153.817L232.867 156.638M237.114 190.142C235.455 177.058 234.526 169.722 232.867 156.638M237.114 190.142L232.867 156.638" stroke="black" stroke-width="5"/>
<path d="M171 237C171 250.8 198.78 250.8 198.78 237" stroke="black" stroke-width="5"/>
<path d="M206.159 137.264L231.74 143.491C239.119 145.287 242.113 132.988 234.733 131.192L209.152 124.966C200.461 122.85 197.468 135.149 206.159 137.264Z" fill="#783A00" stroke="#462507" stroke-width="5"/>
<path d="M165.661 137.264L140.08 143.491C132.7 145.287 129.707 132.988 137.086 131.192L162.667 124.966C171.358 122.85 174.352 135.149 165.661 137.264Z" fill="#783A00" stroke="#462507" stroke-width="5"/>
<path fill-rule="evenodd" clip-rule="evenodd" d="M114.68 524.286L115.755 531.64H254.111L257.846 575.709C257.994 577.459 260.046 578.324 261.402 577.207L261.824 576.86C262.442 576.351 262.731 575.544 262.576 574.759L254.111 531.64C254.111 531.64 260.632 534.241 262.827 531.64C264.679 529.445 264.814 526.36 262.827 524.286C260.753 522.122 255.152 524.286 255.152 524.286H114.68Z" fill="#BC8C20"/>
<path d="M254.111 531.64H115.755V715.48C155.247 715.48 239.731 695.271 254.111 531.64Z" fill="#FE4725"/>
<path d="M254.111 531.64C239.731 695.271 155.247 715.48 115.755 715.48H251.933C253.136 715.48 254.111 714.504 254.111 713.301V531.64Z" fill="#9D2C17"/>
<path fill-rule="evenodd" clip-rule="evenodd" d="M255.152 524.286H114.68C114.68 524.286 194.738 488.608 203.726 451.84C204.978 446.718 199.791 440.255 194.738 441.763C160.966 451.84 114.68 524.286 114.68 524.286L102.502 440.989C102.31 439.675 103.332 438.498 104.659 438.473L104.662 438.473C109.106 438.395 113.528 438.114 117.919 437.642C194.986 429.368 262.276 362.468 264.409 308.999C264.463 307.641 265.692 306.626 267.03 306.869L283.371 309.841C284.522 310.05 285.303 311.131 285.139 312.289L255.152 524.286Z" fill="#E1D1AC"/>
<path d="M194.738 441.763C160.966 451.84 114.68 524.286 114.68 524.286C114.68 524.286 194.738 488.608 203.726 451.84C204.978 446.718 199.791 440.255 194.738 441.763Z" fill="#DAC697"/>
<path d="M254.111 531.64H115.755M254.111 531.64C239.731 695.271 155.247 715.48 115.755 715.48M254.111 531.64L255.152 524.286M254.111 531.64C254.111 531.64 260.632 534.241 262.827 531.64C264.679 529.445 264.814 526.36 262.827 524.286C260.753 522.122 255.152 524.286 255.152 524.286M254.111 531.64L262.576 574.759M254.111 531.64L257.846 575.709M254.111 531.64V713.301M115.755 531.64V715.48M115.755 531.64L114.68 524.286M115.755 715.48H251.933M114.68 524.286H255.152M114.68 524.286L102.502 440.989M114.68 524.286C114.68 524.286 160.966 451.84 194.738 441.763C199.791 440.255 204.978 446.718 203.726 451.84C194.738 488.608 114.68 524.286 114.68 524.286ZM114.68 524.286C143.198 521.381 205.726 509.852 227.693 486.974M255.152 524.286L285.139 312.289M104.662 438.473C104.661 438.473 104.66 438.473 104.659 438.473M104.662 438.473C109.106 438.395 113.528 438.114 117.919 437.642M104.662 438.473L104.659 438.473M264.409 308.999C264.463 307.641 265.692 306.626 267.03 306.869M264.409 308.999C262.276 362.468 194.986 429.368 117.919 437.642M264.409 308.999V308.999C264.463 307.648 265.699 306.627 267.03 306.869V306.869M267.03 306.869L283.371 309.841M283.371 309.841C284.522 310.05 285.303 311.131 285.139 312.289M283.371 309.841V309.841C284.522 310.05 285.303 311.131 285.139 312.289V312.289M262.576 574.759C262.731 575.544 262.442 576.351 261.824 576.86M262.576 574.759V574.759C262.731 575.544 262.442 576.351 261.824 576.86V576.86M261.824 576.86L261.402 577.207M261.402 577.207C260.046 578.324 257.994 577.459 257.846 575.709M261.402 577.207V577.207C260.046 578.324 257.994 577.459 257.846 575.709V575.709M254.111 713.301C254.111 714.504 253.136 715.48 251.933 715.48M254.111 713.301V713.301C254.111 714.504 253.136 715.48 251.933 715.48V715.48M102.502 440.989V440.989C102.31 439.674 103.33 438.496 104.659 438.473V438.473M102.502 440.989C102.31 439.675 103.332 438.498 104.659 438.473M104.659 438.473C109.104 438.395 113.527 438.114 117.919 437.642" stroke="#D7A026" stroke-width="5" stroke-linecap="round" stroke-linejoin="round"/>
<path d="M74.902 132.098C76.99 117.118 86.232 84.1633 106.495 72.1797" stroke="#084621" stroke-width="5"/>
<path d="M296.055 132.098C293.967 117.118 284.725 84.1633 264.461 72.1797" stroke="#084621" stroke-width="5"/>
<path d="M288.527 104.147C290.866 90.6112 300.549 90.9997 302.508 96.9949C303.798 100.944 302.96 107.71 288.527 104.147Z" fill="#11A44C"/>
<path d="M280.233 87.5142C278.348 73.9977 287.776 71.587 291.49 76.7142C293.936 80.0919 295.197 86.7523 280.233 87.5142Z" fill="#11A44C"/>
<path d="M266.986 74.3896C262.003 61.695 270.675 57.3007 275.501 61.4619C278.68 64.2033 281.461 70.3865 266.986 74.3896Z" fill="#11A44C"/>
<path d="M267.599 74.5074C254.89 68.8914 249.837 76.9981 253.802 81.925C256.414 85.1707 262.582 88.2474 267.599 74.5074Z" fill="#11A44C"/>
<path d="M279.515 87.0819C266.005 83.5142 262.327 92.2693 267.063 96.5062C270.183 99.2974 276.798 101.374 279.515 87.0819Z" fill="#11A44C"/>
<path d="M288.527 104.147C290.866 90.6112 300.549 90.9997 302.508 96.9949C303.798 100.944 302.96 107.71 288.527 104.147Z" stroke="#084621" stroke-width="5" stroke-linecap="round" stroke-linejoin="round"/>
<path d="M280.233 87.5142C278.348 73.9977 287.776 71.587 291.49 76.7142C293.936 80.0919 295.197 86.7523 280.233 87.5142Z" stroke="#084621" stroke-width="5" stroke-linecap="round" stroke-linejoin="round"/>
<path d="M266.986 74.3896C262.003 61.695 270.675 57.3007 275.501 61.4619C278.68 64.2033 281.461 70.3865 266.986 74.3896Z" stroke="#084621" stroke-width="5" stroke-linecap="round" stroke-linejoin="round"/>
<path d="M267.599 74.5074C254.89 68.8914 249.837 76.9981 253.802 81.925C256.414 85.1707 262.582 88.2474 267.599 74.5074Z" stroke="#084621" stroke-width="5" stroke-linecap="round" stroke-linejoin="round"/>
<path d="M279.515 87.0819C266.005 83.5142 262.327 92.2693 267.063 96.5062C270.183 99.2974 276.798 101.374 279.515 87.0819Z" stroke="#084621" stroke-width="5" stroke-linecap="round" stroke-linejoin="round"/>
<path d="M82.5765 104.147C80.238 90.6112 70.5542 90.9997 68.596 96.9949C67.306 100.944 68.1437 107.71 82.5765 104.147Z" fill="#11A44C"/>
<path d="M90.8704 87.5142C92.756 73.9977 83.3272 71.587 79.6136 76.7142C77.1672 80.0919 75.9065 86.7523 90.8704 87.5142Z" fill="#11A44C"/>
<path d="M104.117 74.3896C109.101 61.695 100.429 57.3007 95.6028 61.4619C92.4235 64.2033 89.643 70.3865 104.117 74.3896Z" fill="#11A44C"/>
<path d="M103.504 74.5074C116.214 68.8914 121.267 76.9981 117.302 81.925C114.689 85.1707 108.521 88.2474 103.504 74.5074Z" fill="#11A44C"/>
<path d="M91.5882 87.0819C105.099 83.5142 108.776 92.2693 104.04 96.5062C100.92 99.2974 94.3057 101.374 91.5882 87.0819Z" fill="#11A44C"/>
<path d="M82.5765 104.147C80.238 90.6112 70.5542 90.9997 68.596 96.9949C67.306 100.944 68.1437 107.71 82.5765 104.147Z" stroke="#084621" stroke-width="5" stroke-linecap="round" stroke-linejoin="round"/>
<path d="M90.8704 87.5142C92.756 73.9977 83.3272 71.587 79.6136 76.7142C77.1672 80.0919 75.9065 86.7523 90.8704 87.5142Z" stroke="#084621" stroke-width="5" stroke-linecap="round" stroke-linejoin="round"/>
<path d="M104.117 74.3896C109.101 61.695 100.429 57.3007 95.6028 61.4619C92.4235 64.2033 89.643 70.3865 104.117 74.3896Z" stroke="#084621" stroke-width="5" stroke-linecap="round" stroke-linejoin="round"/>
<path d="M103.504 74.5074C116.214 68.8914 121.267 76.9981 117.302 81.925C114.689 85.1707 108.521 88.2474 103.504 74.5074Z" stroke="#084621" stroke-width="5" stroke-linecap="round" stroke-linejoin="round"/>
<path d="M91.5882 87.0819C105.099 83.5142 108.776 92.2693 104.04 96.5062C100.92 99.2974 94.3057 101.374 91.5882 87.0819Z" stroke="#084621" stroke-width="5" stroke-linecap="round" stroke-linejoin="round"/>
</svg>
